<svg width="383" height="429" viewBox="0 0 383 429" fill="none" xmlns="http://www.w3.org/2000/svg">
<path d="M103.623 427H94.0225V426.504L95.5265 425.32V415.624L93.8625 415.064L94.1825 414.424H103.463L104.327 414.136V417.816L103.847 417.976L101.943 415.144H97.5265V420.216H100.039L101.207 418.168H101.703V423.032L101.062 423.352L100.055 420.936H97.5265V426.28H101.878L104.007 423.128L104.487 423.288V427.288L103.623 427ZM116.654 427H107.054V426.504L108.558 425.32V415.624L106.894 415.064L107.214 414.424H112.078V414.92L110.558 416.104V426.28H114.686L117.038 422.808L117.518 422.968V427.288L116.654 427ZM129.201 427H119.601V426.504L121.105 425.32V415.624L119.441 415.064L119.761 414.424H129.041L129.905 414.136V417.816L129.425 417.976L127.521 415.144H123.105V420.216H125.617L126.785 418.168H127.281V423.032L126.641 423.352L125.633 420.936H123.105V426.28H127.457L129.585 423.128L130.065 423.288V427.288L129.201 427ZM144.136 416.104L139.608 426.488L137.944 427.304L133.272 416.04L131.672 415.064L131.992 414.424H136.856V414.92L135.352 416.088L139.208 425.384L143.272 416.024L140.456 415.064L140.776 414.424H145.64V414.92L144.136 416.104ZM157.647 427H152.783V426.504L154.287 425.336L153.055 422.376H147.679L146.367 425.4L149.183 426.36L148.863 427H143.999V426.504L145.503 425.32L150.031 414.936L151.695 414.12L156.367 425.384L157.967 426.36L157.647 427ZM150.431 416.04L147.999 421.656H152.767L150.431 416.04ZM168.723 418.136L168.243 418.296L166.115 415.144H164.163V425.784L165.843 426.36L165.523 427H160.659V426.504L162.163 425.32V415.144H160.259L158.131 418.296L157.651 418.136V414.136L158.515 414.424H167.859L168.723 414.136V418.136ZM175.668 427H170.804V426.504L172.308 425.32V415.624L170.644 415.064L170.964 414.424H175.828V414.92L174.308 416.104V425.784L175.988 426.36L175.668 427ZM188.605 416.12V427.016H187.725L180.125 417.4V425.528L181.805 426.376L181.485 427.016H177.741V426.52L179.245 425.336V415.96L177.581 415.064L177.901 414.424H180.317L187.725 423.8V415.896L186.061 415.064L186.381 414.424H190.125V414.936L188.605 416.12ZM203.086 424.472L203.518 425.16L200.574 426.968C200.126 427.107 199.688 427.197 199.262 427.24C198.846 427.293 198.398 427.32 197.918 427.32C196.734 427.32 195.683 427.048 194.766 426.504C193.859 425.96 193.15 425.213 192.638 424.264C192.136 423.304 191.886 422.216 191.886 421C191.886 419.752 192.264 418.6 193.022 417.544C193.779 416.477 194.723 415.64 195.854 415.032C196.984 414.413 198.062 414.104 199.086 414.104C199.694 414.104 200.403 414.184 201.214 414.344C202.024 414.504 202.616 414.675 202.99 414.856V417.96H202.382C201.315 416.285 199.907 415.448 198.158 415.448C197.39 415.448 196.691 415.656 196.062 416.072C195.432 416.477 194.936 417.048 194.574 417.784C194.222 418.509 194.046 419.325 194.046 420.232C194.046 421.277 194.216 422.232 194.558 423.096C194.91 423.96 195.443 424.653 196.158 425.176C196.872 425.699 197.758 425.96 198.814 425.96C199.283 425.96 199.672 425.944 199.982 425.912C200.291 425.88 200.659 425.779 201.086 425.608V421.832L198.622 421.144L198.942 420.504H204.606V421L203.086 422.2V424.472ZM221.989 418.136L221.509 418.296L219.381 415.144H217.429V425.784L219.109 426.36L218.789 427H213.925V426.504L215.429 425.32V415.144H213.525L211.397 418.296L210.917 418.136V414.136L211.781 414.424H221.125L221.989 414.136V418.136ZM235.749 427.032H232.773L229.253 421.352L228.501 420.808L228.741 420.328H229.637C230.363 420.328 230.933 420.147 231.349 419.784C231.776 419.411 231.989 418.904 231.989 418.264C231.989 417.421 231.755 416.723 231.285 416.168C230.816 415.603 230.133 415.32 229.237 415.32C228.64 415.32 228.091 415.496 227.589 415.848V425.816L229.269 426.392L228.949 427.032H224.085V426.536L225.589 425.352V415.624L223.925 415.08L224.245 414.44H226.101C227.072 414.44 228.027 414.408 228.965 414.344C229.648 414.301 230.155 414.28 230.485 414.28C231.2 414.28 231.835 414.424 232.389 414.712C232.955 415 233.387 415.389 233.685 415.88C233.995 416.371 234.149 416.909 234.149 417.496C234.149 418.029 233.984 418.541 233.653 419.032C233.323 419.512 232.885 419.933 232.341 420.296C231.808 420.648 231.243 420.915 230.645 421.096L231.685 421.448L234.165 425.448L236.069 426.392L235.749 427.032ZM248.415 416.104V422.04C248.415 423.16 248.143 424.12 247.599 424.92C247.066 425.72 246.404 426.323 245.615 426.728C244.826 427.123 244.052 427.32 243.295 427.32C242.346 427.32 241.492 427.112 240.735 426.696C239.988 426.269 239.402 425.688 238.975 424.952C238.559 424.205 238.351 423.368 238.351 422.44V415.624L236.687 415.064L237.007 414.424H241.871V414.92L240.351 416.104V421.672C240.351 423.027 240.682 424.083 241.343 424.84C242.015 425.597 243.028 425.976 244.383 425.976C244.884 425.976 245.375 425.816 245.855 425.496C246.346 425.165 246.746 424.685 247.055 424.056C247.375 423.427 247.535 422.685 247.535 421.832V415.896L245.871 415.064L246.191 414.424H249.935V414.92L248.415 416.104ZM258.454 424.168C258.454 423.837 258.321 423.528 258.054 423.24C257.787 422.952 257.451 422.691 257.046 422.456C256.651 422.211 256.113 421.912 255.43 421.56C254.619 421.133 253.969 420.771 253.478 420.472C252.987 420.163 252.566 419.8 252.214 419.384C251.873 418.968 251.702 418.509 251.702 418.008C251.702 417.475 251.926 416.904 252.374 416.296C252.822 415.677 253.366 415.16 254.006 414.744C254.657 414.317 255.254 414.104 255.798 414.104C256.459 414.104 257.227 414.184 258.102 414.344C258.977 414.504 259.617 414.675 260.022 414.856V417.96H259.414C258.891 417.096 258.315 416.424 257.686 415.944C257.067 415.464 256.417 415.224 255.734 415.224C255.126 415.224 254.641 415.416 254.278 415.8C253.926 416.173 253.75 416.664 253.75 417.272C253.75 417.624 253.883 417.955 254.15 418.264C254.427 418.563 254.763 418.829 255.158 419.064C255.563 419.299 256.123 419.603 256.838 419.976C257.627 420.371 258.267 420.723 258.758 421.032C259.249 421.331 259.659 421.683 259.99 422.088C260.331 422.483 260.502 422.931 260.502 423.432C260.502 423.965 260.262 424.541 259.782 425.16C259.302 425.768 258.715 426.285 258.022 426.712C257.339 427.128 256.715 427.336 256.15 427.336C255.457 427.336 254.63 427.256 253.67 427.096C252.721 426.936 252.038 426.765 251.622 426.584V423.48H252.23C252.774 424.344 253.393 425.016 254.086 425.496C254.779 425.976 255.494 426.216 256.23 426.216C256.667 426.216 257.057 426.12 257.398 425.928C257.739 425.736 258.001 425.485 258.182 425.176C258.363 424.856 258.454 424.52 258.454 424.168ZM273.817 418.136L273.337 418.296L271.209 415.144H269.257V425.784L270.937 426.36L270.617 427H265.753V426.504L267.257 425.32V415.144H265.353L263.225 418.296L262.745 418.136V414.136L263.609 414.424H272.953L273.817 414.136V418.136Z" fill="#C79003"/>
<path d="M103.623 427H94.0225V426.504L95.5265 425.32V415.624L93.8625 415.064L94.1825 414.424H103.463L104.327 414.136V417.816L103.847 417.976L101.943 415.144H97.5265V420.216H100.039L101.207 418.168H101.703V423.032L101.062 423.352L100.055 420.936H97.5265V426.28H101.878L104.007 423.128L104.487 423.288V427.288L103.623 427ZM116.654 427H107.054V426.504L108.558 425.32V415.624L106.894 415.064L107.214 414.424H112.078V414.92L110.558 416.104V426.28H114.686L117.038 422.808L117.518 422.968V427.288L116.654 427ZM129.201 427H119.601V426.504L121.105 425.32V415.624L119.441 415.064L119.761 414.424H129.041L129.905 414.136V417.816L129.425 417.976L127.521 415.144H123.105V420.216H125.617L126.785 418.168H127.281V423.032L126.641 423.352L125.633 420.936H123.105V426.28H127.457L129.585 423.128L130.065 423.288V427.288L129.201 427ZM144.136 416.104L139.608 426.488L137.944 427.304L133.272 416.04L131.672 415.064L131.992 414.424H136.856V414.92L135.352 416.088L139.208 425.384L143.272 416.024L140.456 415.064L140.776 414.424H145.64V414.92L144.136 416.104ZM157.647 427H152.783V426.504L154.287 425.336L153.055 422.376H147.679L146.367 425.4L149.183 426.36L148.863 427H143.999V426.504L145.503 425.32L150.031 414.936L151.695 414.12L156.367 425.384L157.967 426.36L157.647 427ZM150.431 416.04L147.999 421.656H152.767L150.431 416.04ZM168.723 418.136L168.243 418.296L166.115 415.144H164.163V425.784L165.843 426.36L165.523 427H160.659V426.504L162.163 425.32V415.144H160.259L158.131 418.296L157.651 418.136V414.136L158.515 414.424H167.859L168.723 414.136V418.136ZM175.668 427H170.804V426.504L172.308 425.32V415.624L170.644 415.064L170.964 414.424H175.828V414.92L174.308 416.104V425.784L175.988 426.36L175.668 427ZM188.605 416.12V427.016H187.725L180.125 417.4V425.528L181.805 426.376L181.485 427.016H177.741V426.52L179.245 425.336V415.96L177.581 415.064L177.901 414.424H180.317L187.725 423.8V415.896L186.061 415.064L186.381 414.424H190.125V414.936L188.605 416.12ZM203.086 424.472L203.518 425.16L200.574 426.968C200.126 427.107 199.688 427.197 199.262 427.24C198.846 427.293 198.398 427.32 197.918 427.32C196.734 427.32 195.683 427.048 194.766 426.504C193.859 425.96 193.15 425.213 192.638 424.264C192.136 423.304 191.886 422.216 191.886 421C191.886 419.752 192.264 418.6 193.022 417.544C193.779 416.477 194.723 415.64 195.854 415.032C196.984 414.413 198.062 414.104 199.086 414.104C199.694 414.104 200.403 414.184 201.214 414.344C202.024 414.504 202.616 414.675 202.99 414.856V417.96H202.382C201.315 416.285 199.907 415.448 198.158 415.448C197.39 415.448 196.691 415.656 196.062 416.072C195.432 416.477 194.936 417.048 194.574 417.784C194.222 418.509 194.046 419.325 194.046 420.232C194.046 421.277 194.216 422.232 194.558 423.096C194.91 423.96 195.443 424.653 196.158 425.176C196.872 425.699 197.758 425.96 198.814 425.96C199.283 425.96 199.672 425.944 199.982 425.912C200.291 425.88 200.659 425.779 201.086 425.608V421.832L198.622 421.144L198.942 420.504H204.606V421L203.086 422.2V424.472ZM221.989 418.136L221.509 418.296L219.381 415.144H217.429V425.784L219.109 426.36L218.789 427H213.925V426.504L215.429 425.32V415.144H213.525L211.397 418.296L210.917 418.136V414.136L211.781 414.424H221.125L221.989 414.136V418.136ZM235.749 427.032H232.773L229.253 421.352L228.501 420.808L228.741 420.328H229.637C230.363 420.328 230.933 420.147 231.349 419.784C231.776 419.411 231.989 418.904 231.989 418.264C231.989 417.421 231.755 416.723 231.285 416.168C230.816 415.603 230.133 415.32 229.237 415.32C228.64 415.32 228.091 415.496 227.589 415.848V425.816L229.269 426.392L228.949 427.032H224.085V426.536L225.589 425.352V415.624L223.925 415.08L224.245 414.44H226.101C227.072 414.44 228.027 414.408 228.965 414.344C229.648 414.301 230.155 414.28 230.485 414.28C231.2 414.28 231.835 414.424 232.389 414.712C232.955 415 233.387 415.389 233.685 415.88C233.995 416.371 234.149 416.909 234.149 417.496C234.149 418.029 233.984 418.541 233.653 419.032C233.323 419.512 232.885 419.933 232.341 420.296C231.808 420.648 231.243 420.915 230.645 421.096L231.685 421.448L234.165 425.448L236.069 426.392L235.749 427.032ZM248.415 416.104V422.04C248.415 423.16 248.143 424.12 247.599 424.92C247.066 425.72 246.404 426.323 245.615 426.728C244.826 427.123 244.052 427.32 243.295 427.32C242.346 427.32 241.492 427.112 240.735 426.696C239.988 426.269 239.402 425.688 238.975 424.952C238.559 424.205 238.351 423.368 238.351 422.44V415.624L236.687 415.064L237.007 414.424H241.871V414.92L240.351 416.104V421.672C240.351 423.027 240.682 424.083 241.343 424.84C242.015 425.597 243.028 425.976 244.383 425.976C244.884 425.976 245.375 425.816 245.855 425.496C246.346 425.165 246.746 424.685 247.055 424.056C247.375 423.427 247.535 422.685 247.535 421.832V415.896L245.871 415.064L246.191 414.424H249.935V414.92L248.415 416.104ZM258.454 424.168C258.454 423.837 258.321 423.528 258.054 423.24C257.787 422.952 257.451 422.691 257.046 422.456C256.651 422.211 256.113 421.912 255.43 421.56C254.619 421.133 253.969 420.771 253.478 420.472C252.987 420.163 252.566 419.8 252.214 419.384C251.873 418.968 251.702 418.509 251.702 418.008C251.702 417.475 251.926 416.904 252.374 416.296C252.822 415.677 253.366 415.16 254.006 414.744C254.657 414.317 255.254 414.104 255.798 414.104C256.459 414.104 257.227 414.184 258.102 414.344C258.977 414.504 259.617 414.675 260.022 414.856V417.96H259.414C258.891 417.096 258.315 416.424 257.686 415.944C257.067 415.464 256.417 415.224 255.734 415.224C255.126 415.224 254.641 415.416 254.278 415.8C253.926 416.173 253.75 416.664 253.75 417.272C253.75 417.624 253.883 417.955 254.15 418.264C254.427 418.563 254.763 418.829 255.158 419.064C255.563 419.299 256.123 419.603 256.838 419.976C257.627 420.371 258.267 420.723 258.758 421.032C259.249 421.331 259.659 421.683 259.99 422.088C260.331 422.483 260.502 422.931 260.502 423.432C260.502 423.965 260.262 424.541 259.782 425.16C259.302 425.768 258.715 426.285 258.022 426.712C257.339 427.128 256.715 427.336 256.15 427.336C255.457 427.336 254.63 427.256 253.67 427.096C252.721 426.936 252.038 426.765 251.622 426.584V423.48H252.23C252.774 424.344 253.393 425.016 254.086 425.496C254.779 425.976 255.494 426.216 256.23 426.216C256.667 426.216 257.057 426.12 257.398 425.928C257.739 425.736 258.001 425.485 258.182 425.176C258.363 424.856 258.454 424.52 258.454 424.168ZM273.817 418.136L273.337 418.296L271.209 415.144H269.257V425.784L270.937 426.36L270.617 427H265.753V426.504L267.257 425.32V415.144H265.353L263.225 418.296L262.745 418.136V414.136L263.609 414.424H272.953L273.817 414.136V418.136Z" fill="#B48611"/>
<g filter="url(#filter0_i_110_2)">
<g filter="url(#filter1_d_110_2)">
<rect x="134.5" y="182.5" width="10" height="10" fill="url(#paint0_linear_110_2)"/>
<rect x="134.5" y="182.5" width="10" height="10" fill="url(#paint1_linear_110_2)" fill-opacity="0.2"/>
<rect x="134.5" y="182.5" width="10" height="10" stroke="url(#paint2_linear_110_2)"/>
<rect x="156.5" y="182.5" width="10" height="10" fill="url(#paint3_linear_110_2)"/>
<rect x="156.5" y="182.5" width="10" height="10" fill="url(#paint4_linear_110_2)" fill-opacity="0.2"/>
<rect x="156.5" y="182.5" width="10" height="10" stroke="url(#paint5_linear_110_2)"/>
<rect x="208.5" y="187.5" width="10" height="10" fill="url(#paint6_linear_110_2)"/>
<rect x="208.5" y="187.5" width="10" height="10" fill="url(#paint7_linear_110_2)" fill-opacity="0.2"/>
<rect x="208.5" y="187.5" width="10" height="10" stroke="url(#paint8_linear_110_2)"/>
<path d="M305.496 319.934H295.746L178.207 234.353L109.146 279.31H96.9592L178.207 221.082L305.496 319.934Z" fill="url(#paint9_linear_110_2)"/>
<path d="M305.496 319.934H295.746L178.207 234.353L109.146 279.31H96.9592L178.207 221.082L305.496 319.934Z" fill="url(#paint10_linear_110_2)" fill-opacity="0.2"/>
<path d="M305.496 319.934H295.746L178.207 234.353L109.146 279.31H96.9592L178.207 221.082L305.496 319.934Z" stroke="url(#paint11_linear_110_2)" stroke-width="1.08331"/>
<path d="M123 226V94.5L197.5 52V188.5" stroke="url(#paint12_linear_110_2)" stroke-width="5"/>
<path d="M197.5 54V6L260 54V249" stroke="url(#paint13_linear_110_2)" stroke-width="5"/>
<path d="M344.225 331.038H331.74L181.229 189.887L92.7948 264.036H77.1888L181.229 168L344.225 331.038Z" fill="url(#paint14_linear_110_2)"/>
<path d="M344.225 331.038H331.74L181.229 189.887L92.7948 264.036H77.1888L181.229 168L344.225 331.038Z" fill="url(#paint15_linear_110_2)" fill-opacity="0.2"/>
<path d="M344.225 331.038H331.74L181.229 189.887L92.7948 264.036H77.1888L181.229 168L344.225 331.038Z" stroke="url(#paint16_linear_110_2)" stroke-width="1.08331"/>
<line x1="64.1893" y1="228.665" x2="64.1893" y2="270.373" stroke="url(#paint17_linear_110_2)" stroke-width="4.33324"/>
<line x1="95.1639" y1="197.789" x2="120.68" y2="223.561" stroke="url(#paint18_linear_110_2)" stroke-width="5.41654"/>
<line x1="96.0036" y1="194.976" x2="50.2895" y2="240.726" stroke="url(#paint19_linear_110_2)" stroke-width="5.41654"/>
<rect x="167.916" y="255.477" width="7.58316" height="7.58316" fill="url(#paint20_linear_110_2)"/>
<rect x="167.916" y="255.477" width="7.58316" height="7.58316" fill="url(#paint21_linear_110_2)" fill-opacity="0.2"/>
<rect x="167.916" y="255.477" width="7.58316" height="7.58316" stroke="url(#paint22_linear_110_2)" stroke-width="0.541654"/>
<rect x="179.832" y="255.477" width="7.58316" height="7.58316" fill="url(#paint23_linear_110_2)"/>
<rect x="179.832" y="255.477" width="7.58316" height="7.58316" fill="url(#paint24_linear_110_2)" fill-opacity="0.2"/>
<rect x="179.832" y="255.477" width="7.58316" height="7.58316" stroke="url(#paint25_linear_110_2)" stroke-width="0.541654"/>
<rect x="167.916" y="266.852" width="7.58316" height="7.58316" fill="url(#paint26_linear_110_2)"/>
<rect x="167.916" y="266.852" width="7.58316" height="7.58316" fill="url(#paint27_linear_110_2)" fill-opacity="0.2"/>
<rect x="167.916" y="266.852" width="7.58316" height="7.58316" stroke="url(#paint28_linear_110_2)" stroke-width="0.541654"/>
<rect x="179.832" y="266.852" width="7.58316" height="7.58316" fill="url(#paint29_linear_110_2)"/>
<rect x="179.832" y="266.852" width="7.58316" height="7.58316" fill="url(#paint30_linear_110_2)" fill-opacity="0.2"/>
<rect x="179.832" y="266.852" width="7.58316" height="7.58316" stroke="url(#paint31_linear_110_2)" stroke-width="0.541654"/>
<rect x="86.1262" y="219.186" width="6.04604" height="5.10058" fill="url(#paint32_linear_110_2)"/>
<rect x="86.1262" y="219.186" width="6.04604" height="5.10058" fill="url(#paint33_linear_110_2)" fill-opacity="0.2"/>
<rect x="86.1262" y="219.186" width="6.04604" height="5.10058" stroke="url(#paint34_linear_110_2)" stroke-width="0.541654"/>
<rect x="95.7881" y="219.186" width="6.04604" height="5.10058" fill="url(#paint35_linear_110_2)"/>
<rect x="95.7881" y="219.186" width="6.04604" height="5.10058" fill="url(#paint36_linear_110_2)" fill-opacity="0.2"/>
<rect x="95.7881" y="219.186" width="6.04604" height="5.10058" stroke="url(#paint37_linear_110_2)" stroke-width="0.541654"/>
<rect x="86.1262" y="227.086" width="6.04604" height="5.10058" fill="url(#paint38_linear_110_2)"/>
<rect x="86.1262" y="227.086" width="6.04604" height="5.10058" fill="url(#paint39_linear_110_2)" fill-opacity="0.2"/>
<rect x="86.1262" y="227.086" width="6.04604" height="5.10058" stroke="url(#paint40_linear_110_2)" stroke-width="0.541654"/>
<rect x="95.7881" y="227.086" width="6.04604" height="5.10058" fill="url(#paint41_linear_110_2)"/>
<rect x="95.7881" y="227.086" width="6.04604" height="5.10058" fill="url(#paint42_linear_110_2)" fill-opacity="0.2"/>
<rect x="95.7881" y="227.086" width="6.04604" height="5.10058" stroke="url(#paint43_linear_110_2)" stroke-width="0.541654"/>
<path d="M9.7519 323.613L0.999978 328.278L14.3223 324.169L28.3204 321.233L38.1223 319.151L47.9243 317.069L57.8643 316.095L67.7389 315.659L77.312 315.459L89.5736 315.586L109.468 318.005L136.19 322.618L165.948 331.421L178.257 335.646L191.609 340.27L206.842 345.124L221.033 349.577L237.204 353.453L252.699 356.156L264.259 357.562L269.636 358.216L277.531 358.357L285.996 358.295L293.084 358.339L301.077 357.674L309.167 356.202L317.055 354.16L330.58 350.621L341.418 346.755L354.733 340.463L365.058 334.079L374.373 327.027L364.644 330.755L350.18 335.271L335.645 338.142L324.262 339.759L315.194 340.293L305.32 340.729L299.845 340.882L295.274 340.326L290.166 339.705L286.671 339.28L283.176 338.855L280.756 338.561L277.799 338.201L272.96 337.613L268.927 337.122L264.088 336.534L240.992 331.27L215.641 324.368L182.184 314.57L166.315 310.458L145.809 306.328L123.764 303.647L102.06 302.645L82.2455 304.055L66.1947 305.922L50.1185 310.243L34.9142 314.123L23.5065 318.192L9.7519 323.613Z" fill="url(#paint44_linear_110_2)"/>
<path d="M9.7519 323.613L0.999978 328.278L14.3223 324.169L28.3204 321.233L38.1223 319.151L47.9243 317.069L57.8643 316.095L67.7389 315.659L77.312 315.459L89.5736 315.586L109.468 318.005L136.19 322.618L165.948 331.421L178.257 335.646L191.609 340.27L206.842 345.124L221.033 349.577L237.204 353.453L252.699 356.156L264.259 357.562L269.636 358.216L277.531 358.357L285.996 358.295L293.084 358.339L301.077 357.674L309.167 356.202L317.055 354.16L330.58 350.621L341.418 346.755L354.733 340.463L365.058 334.079L374.373 327.027L364.644 330.755L350.18 335.271L335.645 338.142L324.262 339.759L315.194 340.293L305.32 340.729L299.845 340.882L295.274 340.326L290.166 339.705L286.671 339.28L283.176 338.855L280.756 338.561L277.799 338.201L272.96 337.613L268.927 337.122L264.088 336.534L240.992 331.27L215.641 324.368L182.184 314.57L166.315 310.458L145.809 306.328L123.764 303.647L102.06 302.645L82.2455 304.055L66.1947 305.922L50.1185 310.243L34.9142 314.123L23.5065 318.192L9.7519 323.613Z" fill="url(#paint45_linear_110_2)" fill-opacity="0.2"/>
<path d="M9.7519 323.613L0.999978 328.278L14.3223 324.169L28.3204 321.233L38.1223 319.151L47.9243 317.069L57.8643 316.095L67.7389 315.659L77.312 315.459L89.5736 315.586L109.468 318.005L136.19 322.618L165.948 331.421L178.257 335.646L191.609 340.27L206.842 345.124L221.033 349.577L237.204 353.453L252.699 356.156L264.259 357.562L269.636 358.216L277.531 358.357L285.996 358.295L293.084 358.339L301.077 357.674L309.167 356.202L317.055 354.16L330.58 350.621L341.418 346.755L354.733 340.463L365.058 334.079L374.373 327.027L364.644 330.755L350.18 335.271L335.645 338.142L324.262 339.759L315.194 340.293L305.32 340.729L299.845 340.882L295.274 340.326L290.166 339.705L286.671 339.28L283.176 338.855L280.756 338.561L277.799 338.201L272.96 337.613L268.927 337.122L264.088 336.534L240.992 331.27L215.641 324.368L182.184 314.57L166.315 310.458L145.809 306.328L123.764 303.647L102.06 302.645L82.2455 304.055L66.1947 305.922L50.1185 310.243L34.9142 314.123L23.5065 318.192L9.7519 323.613Z" stroke="url(#paint46_linear_110_2)" stroke-width="1.08331"/>
<rect x="208.5" y="57.5" width="10" height="10" fill="url(#paint47_linear_110_2)"/>
<rect x="208.5" y="57.5" width="10" height="10" fill="url(#paint48_linear_110_2)" fill-opacity="0.2"/>
<rect x="208.5" y="57.5" width="10" height="10" stroke="url(#paint49_linear_110_2)"/>
<rect x="208.5" y="83.5" width="10" height="10" fill="url(#paint50_linear_110_2)"/>
<rect x="208.5" y="83.5" width="10" height="10" fill="url(#paint51_linear_110_2)" fill-opacity="0.2"/>
<rect x="208.5" y="83.5" width="10" height="10" stroke="url(#paint52_linear_110_2)"/>
<rect x="208.5" y="109.5" width="10" height="10" fill="url(#paint53_linear_110_2)"/>
<rect x="208.5" y="109.5" width="10" height="10" fill="url(#paint54_linear_110_2)" fill-opacity="0.2"/>
<rect x="208.5" y="109.5" width="10" height="10" stroke="url(#paint55_linear_110_2)"/>
<rect x="208.5" y="135.5" width="10" height="10" fill="url(#paint56_linear_110_2)"/>
<rect x="208.5" y="135.5" width="10" height="10" fill="url(#paint57_linear_110_2)" fill-opacity="0.2"/>
<rect x="208.5" y="135.5" width="10" height="10" stroke="url(#paint58_linear_110_2)"/>
<rect x="208.5" y="161.5" width="10" height="10" fill="url(#paint59_linear_110_2)"/>
<rect x="208.5" y="161.5" width="10" height="10" fill="url(#paint60_linear_110_2)" fill-opacity="0.2"/>
<rect x="208.5" y="161.5" width="10" height="10" stroke="url(#paint61_linear_110_2)"/>
<rect x="238.5" y="57.5" width="10" height="10" fill="url(#paint62_linear_110_2)"/>
<rect x="238.5" y="57.5" width="10" height="10" fill="url(#paint63_linear_110_2)" fill-opacity="0.2"/>
<rect x="238.5" y="57.5" width="10" height="10" stroke="url(#paint64_linear_110_2)"/>
<rect x="238.5" y="83.5" width="10" height="10" fill="url(#paint65_linear_110_2)"/>
<rect x="238.5" y="83.5" width="10" height="10" fill="url(#paint66_linear_110_2)" fill-opacity="0.2"/>
<rect x="238.5" y="83.5" width="10" height="10" stroke="url(#paint67_linear_110_2)"/>
<rect x="238.5" y="109.5" width="10" height="10" fill="url(#paint68_linear_110_2)"/>
<rect x="238.5" y="109.5" width="10" height="10" fill="url(#paint69_linear_110_2)" fill-opacity="0.2"/>
<rect x="238.5" y="109.5" width="10" height="10" stroke="url(#paint70_linear_110_2)"/>
<rect x="238.5" y="135.5" width="10" height="10" fill="url(#paint71_linear_110_2)"/>
<rect x="238.5" y="135.5" width="10" height="10" fill="url(#paint72_linear_110_2)" fill-opacity="0.2"/>
<rect x="238.5" y="135.5" width="10" height="10" stroke="url(#paint73_linear_110_2)"/>
<rect x="238.5" y="161.5" width="10" height="10" fill="url(#paint74_linear_110_2)"/>
<rect x="238.5" y="161.5" width="10" height="10" fill="url(#paint75_linear_110_2)" fill-opacity="0.2"/>
<rect x="238.5" y="161.5" width="10" height="10" stroke="url(#paint76_linear_110_2)"/>
<rect x="238.5" y="187.5" width="10" height="10" fill="url(#paint77_linear_110_2)"/>
<rect x="238.5" y="187.5" width="10" height="10" fill="url(#paint78_linear_110_2)" fill-opacity="0.2"/>
<rect x="238.5" y="187.5" width="10" height="10" stroke="url(#paint79_linear_110_2)"/>
<rect x="134.5" y="94.5" width="10" height="10" fill="url(#paint80_linear_110_2)"/>
<rect x="134.5" y="94.5" width="10" height="10" fill="url(#paint81_linear_110_2)" fill-opacity="0.2"/>
<rect x="134.5" y="94.5" width="10" height="10" stroke="url(#paint82_linear_110_2)"/>
<rect x="134.5" y="124.5" width="10" height="10" fill="url(#paint83_linear_110_2)"/>
<rect x="134.5" y="124.5" width="10" height="10" fill="url(#paint84_linear_110_2)" fill-opacity="0.2"/>
<rect x="134.5" y="124.5" width="10" height="10" stroke="url(#paint85_linear_110_2)"/>
<rect x="134.5" y="155.5" width="10" height="10" fill="url(#paint86_linear_110_2)"/>
<rect x="134.5" y="155.5" width="10" height="10" fill="url(#paint87_linear_110_2)" fill-opacity="0.2"/>
<rect x="134.5" y="155.5" width="10" height="10" stroke="url(#paint88_linear_110_2)"/>
<rect x="178.5" y="94.5" width="10" height="10" fill="url(#paint89_linear_110_2)"/>
<rect x="178.5" y="94.5" width="10" height="10" fill="url(#paint90_linear_110_2)" fill-opacity="0.2"/>
<rect x="178.5" y="94.5" width="10" height="10" stroke="url(#paint91_linear_110_2)"/>
<rect x="178.5" y="124.5" width="10" height="10" fill="url(#paint92_linear_110_2)"/>
<rect x="178.5" y="124.5" width="10" height="10" fill="url(#paint93_linear_110_2)" fill-opacity="0.2"/>
<rect x="178.5" y="124.5" width="10" height="10" stroke="url(#paint94_linear_110_2)"/>
<rect x="178.5" y="155.5" width="10" height="10" fill="url(#paint95_linear_110_2)"/>
<rect x="178.5" y="155.5" width="10" height="10" fill="url(#paint96_linear_110_2)" fill-opacity="0.2"/>
<rect x="178.5" y="155.5" width="10" height="10" stroke="url(#paint97_linear_110_2)"/>
<rect x="156.5" y="94.5" width="10" height="10" fill="url(#paint98_linear_110_2)"/>
<rect x="156.5" y="94.5" width="10" height="10" fill="url(#paint99_linear_110_2)" fill-opacity="0.2"/>
<rect x="156.5" y="94.5" width="10" height="10" stroke="url(#paint100_linear_110_2)"/>
<rect x="156.5" y="124.5" width="10" height="10" fill="url(#paint101_linear_110_2)"/>
<rect x="156.5" y="124.5" width="10" height="10" fill="url(#paint102_linear_110_2)" fill-opacity="0.2"/>
<rect x="156.5" y="124.5" width="10" height="10" stroke="url(#paint103_linear_110_2)"/>
<rect x="156.5" y="155.5" width="10" height="10" fill="url(#paint104_linear_110_2)"/>
<rect x="156.5" y="155.5" width="10" height="10" fill="url(#paint105_linear_110_2)" fill-opacity="0.2"/>
<rect x="156.5" y="155.5" width="10" height="10" stroke="url(#paint106_linear_110_2)"/>
<path d="M365 341L370.5 337L363.5 343.5L360.5 346L356.5 349L349.5 354L338 359.5L327.5 364L319 367L308 370L295.5 371.5H283H271L251 368.5L231 364L204 356.5L186.5 352L174 349L186.5 350.5L204 354L231 359.5L251 364L271 366H283H295.5L307 364L319 361.5L331.5 358L341 354L349.5 350.5L358 346L365 341Z" fill="url(#paint107_linear_110_2)"/>
<path d="M365 341L370.5 337L363.5 343.5L360.5 346L356.5 349L349.5 354L338 359.5L327.5 364L319 367L308 370L295.5 371.5H283H271L251 368.5L231 364L204 356.5L186.5 352L174 349L186.5 350.5L204 354L231 359.5L251 364L271 366H283H295.5L307 364L319 361.5L331.5 358L341 354L349.5 350.5L358 346L365 341Z" fill="url(#paint108_linear_110_2)" fill-opacity="0.2"/>
<path d="M365 341L370.5 337L363.5 343.5L360.5 346L356.5 349L349.5 354L338 359.5L327.5 364L319 367L308 370L295.5 371.5H283H271L251 368.5L231 364L204 356.5L186.5 352L174 349L186.5 350.5L204 354L231 359.5L251 364L271 366H283H295.5L307 364L319 361.5L331.5 358L341 354L349.5 350.5L358 346L365 341Z" stroke="url(#paint109_linear_110_2)"/>
</g>
<path d="M26.4366 379.696C28.1903 379.696 29.7397 380.121 31.0848 380.973C32.447 381.807 33.4941 382.973 34.2263 384.472C34.9754 385.97 35.35 387.664 35.35 389.554C35.35 391.495 34.7796 393.291 33.6388 394.943C32.5151 396.578 31.1104 397.88 29.4247 398.851C27.7561 399.804 26.1556 400.281 24.6232 400.281C23.84 400.281 23.0482 400.238 22.248 400.153C20.9369 400.068 19.9239 400.026 19.2087 400.026H15.9652V399.234L18.3659 397.344V381.816L15.7098 380.947L16.2206 379.926H19.1832C20.8007 379.926 22.3757 379.874 23.9081 379.772C25.0659 379.704 25.9087 379.67 26.4366 379.67V379.696ZM25.3383 398.391C26.5643 398.391 27.6795 398.067 28.6841 397.42C29.6886 396.756 30.4719 395.845 31.0338 394.688C31.6127 393.513 31.9021 392.202 31.9021 390.755C31.9021 389.018 31.6297 387.443 31.0848 386.03C30.54 384.599 29.7057 383.459 28.5819 382.607C27.4752 381.756 26.096 381.33 24.4444 381.33C23.4058 381.33 22.4438 381.637 21.5584 382.25V397.752C22.597 398.178 23.857 398.391 25.3383 398.391ZM53.9858 400H38.6618V399.208L41.0626 397.318V381.841L38.4064 380.947L38.9172 379.926H53.7304L55.1096 379.466V385.34L54.3434 385.595L51.3041 381.075H44.2551V389.171H48.2649L50.1293 385.902H50.921V393.666L49.8994 394.177L48.2904 390.32H44.2551V398.851H51.202L54.5988 393.819L55.365 394.075V400.46L53.9858 400ZM74.787 400H59.463V399.208L61.8637 397.318V381.841L59.2076 380.947L59.7184 379.926H74.5316L75.9107 379.466V385.34L75.1445 385.595L72.1053 381.075H65.0562V389.171H69.066L70.9304 385.902H71.7222V393.666L70.7006 394.177L69.0915 390.32H65.0562V398.851H72.0031L75.3999 393.819L76.1661 394.075V400.46L74.787 400ZM89.9182 390.218C91.076 390.218 91.987 389.903 92.651 389.273C93.3321 388.643 93.6726 387.775 93.6726 386.668C93.6726 385.102 93.2725 383.825 92.4722 382.837C91.689 381.833 90.5397 381.33 89.0243 381.33C87.8665 381.33 86.8109 381.662 85.8574 382.326V397.906L89.8161 399.004L89.3053 400.026H80.2641V399.234L82.6649 397.344V381.816L80.0087 380.947L80.5195 379.926H83.4821C85.1337 379.926 86.7598 379.874 88.3603 379.772C89.5522 379.704 90.429 379.67 90.9909 379.67C92.1828 379.67 93.2384 379.926 94.1579 380.436C95.0943 380.93 95.818 381.62 96.3288 382.505C96.8396 383.39 97.095 384.37 97.095 385.442C97.095 386.634 96.6608 387.758 95.7924 388.813C94.9241 389.869 93.8173 390.695 92.4722 391.291C91.1271 391.887 89.8076 392.151 88.5135 392.083L87.3131 391.214L87.8239 390.193H89.8927L89.9182 390.218ZM122.625 400H107.301V399.208L109.701 397.318V381.841L107.045 380.947L107.556 379.926H115.32V380.717L112.894 382.607V398.851H119.483L123.238 393.309L124.004 393.564V400.46L122.625 400ZM147.505 400H139.741V399.208L142.142 397.344L140.175 392.619H131.594L129.499 397.446L133.994 398.978L133.484 400H125.72V399.208L128.12 397.318L135.348 380.743L138.004 379.44L145.462 397.42L148.016 398.978L147.505 400ZM135.987 382.505L132.105 391.47H139.715L135.987 382.505ZM169.013 400H161.249V399.208L163.266 397.65L158.414 391.521L153.101 397.523L156.805 398.978L156.294 400H148.53V399.208L151.365 397.472L157.622 390.499L151.365 382.505L148.785 380.947L149.296 379.926H157.06V380.717L155.042 382.275L159.869 388.354L164.748 382.428L161.019 380.947L161.53 379.926H169.294V380.717L166.663 382.326L160.712 389.401L166.97 397.42L169.524 398.978L169.013 400ZM196.01 400.026H188.246V399.234L190.646 397.344V383.22L183.827 400.026H182.423L175.654 383.041V397.65L178.336 399.004L177.825 400.026H171.849V399.234L174.25 397.344V382.377L171.594 380.947L172.104 379.926H177.647L184.032 395.965L190.391 379.926H196.265V380.717L193.839 382.607V398.059L196.521 399.004L196.01 400.026ZM207.099 400H199.334V399.208L201.735 397.318V381.841L199.079 380.947L199.59 379.926H207.354V380.717L204.928 382.607V398.059L207.609 398.978L207.099 400ZM238.587 400H230.822V399.208L233.223 397.318V390.576H223.135V398.059L225.817 398.978L225.306 400H217.542V399.208L219.942 397.318V381.841L217.286 380.947L217.797 379.926H225.561V380.717L223.135 382.607V389.426H233.223V381.841L230.567 380.947L231.078 379.926H238.842V380.717L236.416 382.607V398.059L239.097 398.978L238.587 400ZM253.147 379.415C254.952 379.415 256.544 379.849 257.923 380.717C259.319 381.586 260.4 382.786 261.167 384.318C261.933 385.851 262.316 387.588 262.316 389.529C262.316 391.521 261.737 393.36 260.579 395.045C259.421 396.731 257.983 398.067 256.263 399.055C254.543 400.026 252.9 400.511 251.334 400.511C249.529 400.511 247.928 400.085 246.532 399.234C245.153 398.365 244.08 397.165 243.314 395.633C242.548 394.1 242.165 392.364 242.165 390.422C242.165 388.43 242.744 386.591 243.901 384.906C245.059 383.203 246.498 381.867 248.218 380.896C249.937 379.909 251.581 379.415 253.147 379.415ZM251.666 381.56C250.542 381.56 249.512 381.892 248.575 382.556C247.656 383.203 246.932 384.114 246.404 385.289C245.877 386.447 245.613 387.749 245.613 389.197C245.613 390.865 245.877 392.398 246.404 393.794C246.932 395.173 247.732 396.28 248.805 397.114C249.895 397.948 251.231 398.365 252.815 398.365C253.939 398.365 254.96 398.042 255.88 397.395C256.816 396.731 257.548 395.82 258.076 394.662C258.604 393.487 258.868 392.176 258.868 390.729C258.868 389.043 258.604 387.511 258.076 386.132C257.548 384.736 256.748 383.629 255.675 382.812C254.603 381.977 253.266 381.56 251.666 381.56ZM283.839 382.607V392.083C283.839 393.87 283.404 395.403 282.536 396.68C281.685 397.957 280.629 398.919 279.369 399.566C278.109 400.196 276.875 400.511 275.666 400.511C274.15 400.511 272.788 400.179 271.579 399.515C270.388 398.834 269.451 397.906 268.77 396.731C268.106 395.539 267.774 394.202 267.774 392.721V381.841L265.118 380.947L265.629 379.926H273.393V380.717L270.966 382.607V391.495C270.966 393.658 271.494 395.343 272.55 396.552C273.623 397.761 275.24 398.365 277.403 398.365C278.203 398.365 278.986 398.11 279.752 397.599C280.535 397.071 281.174 396.305 281.668 395.301C282.179 394.296 282.434 393.113 282.434 391.751V382.275L279.778 380.947L280.289 379.926H286.265V380.717L283.839 382.607ZM299.863 395.479C299.863 394.952 299.651 394.458 299.225 393.998C298.799 393.538 298.263 393.121 297.616 392.747C296.986 392.355 296.126 391.878 295.036 391.316C293.742 390.635 292.704 390.056 291.92 389.58C291.137 389.086 290.465 388.507 289.903 387.843C289.358 387.179 289.086 386.447 289.086 385.647C289.086 384.795 289.443 383.884 290.158 382.914C290.873 381.926 291.742 381.1 292.763 380.436C293.802 379.755 294.755 379.415 295.624 379.415C296.679 379.415 297.905 379.542 299.302 379.798C300.698 380.053 301.719 380.326 302.366 380.615V385.57H301.396C300.562 384.191 299.642 383.118 298.638 382.352C297.65 381.586 296.611 381.203 295.522 381.203C294.551 381.203 293.776 381.509 293.197 382.122C292.636 382.718 292.355 383.501 292.355 384.472C292.355 385.034 292.568 385.561 292.993 386.055C293.436 386.532 293.972 386.958 294.602 387.332C295.249 387.707 296.143 388.192 297.284 388.788C298.544 389.418 299.565 389.98 300.349 390.474C301.132 390.95 301.787 391.512 302.315 392.159C302.86 392.789 303.133 393.504 303.133 394.305C303.133 395.156 302.749 396.075 301.983 397.063C301.217 398.033 300.281 398.859 299.174 399.54C298.084 400.204 297.088 400.536 296.186 400.536C295.079 400.536 293.759 400.409 292.227 400.153C290.712 399.898 289.622 399.625 288.958 399.336V394.381H289.928C290.797 395.76 291.784 396.833 292.891 397.599C293.998 398.365 295.139 398.749 296.313 398.749C297.011 398.749 297.633 398.595 298.178 398.289C298.723 397.982 299.14 397.582 299.429 397.088C299.719 396.578 299.863 396.041 299.863 395.479ZM314.222 400H306.458V399.208L308.858 397.318V381.841L306.202 380.947L306.713 379.926H314.477V380.717L312.051 382.607V398.059L314.733 398.978L314.222 400ZM334.873 382.633V400.026H333.469L321.337 384.676V397.65L324.019 399.004L323.508 400.026H317.532V399.234L319.932 397.344V382.377L317.276 380.947L317.787 379.926H321.644L333.469 394.892V382.275L330.813 380.947L331.323 379.926H337.3V380.743L334.873 382.633ZM357.988 395.965L358.677 397.063L353.978 399.949C353.263 400.17 352.565 400.315 351.884 400.383C351.22 400.468 350.504 400.511 349.738 400.511C347.848 400.511 346.171 400.077 344.707 399.208C343.26 398.34 342.127 397.148 341.31 395.633C340.51 394.1 340.11 392.364 340.11 390.422C340.11 388.43 340.714 386.591 341.923 384.906C343.132 383.203 344.639 381.867 346.444 380.896C348.248 379.909 349.968 379.415 351.603 379.415C352.573 379.415 353.705 379.542 354.999 379.798C356.293 380.053 357.238 380.326 357.834 380.615V385.57H356.864C355.161 382.897 352.914 381.56 350.121 381.56C348.895 381.56 347.78 381.892 346.776 382.556C345.771 383.203 344.979 384.114 344.4 385.289C343.838 386.447 343.558 387.749 343.558 389.197C343.558 390.865 343.83 392.389 344.375 393.768C344.937 395.147 345.788 396.254 346.929 397.088C348.07 397.923 349.483 398.34 351.168 398.34C351.918 398.34 352.539 398.314 353.033 398.263C353.527 398.212 354.114 398.05 354.795 397.778V391.751L350.862 390.652L351.373 389.631H360.414V390.422L357.988 392.338V395.965Z" fill="url(#paint110_linear_110_2)"/>
<path d="M26.4366 379.696C28.1903 379.696 29.7397 380.121 31.0848 380.973C32.447 381.807 33.4941 382.973 34.2263 384.472C34.9754 385.97 35.35 387.664 35.35 389.554C35.35 391.495 34.7796 393.291 33.6388 394.943C32.5151 396.578 31.1104 397.88 29.4247 398.851C27.7561 399.804 26.1556 400.281 24.6232 400.281C23.84 400.281 23.0482 400.238 22.248 400.153C20.9369 400.068 19.9239 400.026 19.2087 400.026H15.9652V399.234L18.3659 397.344V381.816L15.7098 380.947L16.2206 379.926H19.1832C20.8007 379.926 22.3757 379.874 23.9081 379.772C25.0659 379.704 25.9087 379.67 26.4366 379.67V379.696ZM25.3383 398.391C26.5643 398.391 27.6795 398.067 28.6841 397.42C29.6886 396.756 30.4719 395.845 31.0338 394.688C31.6127 393.513 31.9021 392.202 31.9021 390.755C31.9021 389.018 31.6297 387.443 31.0848 386.03C30.54 384.599 29.7057 383.459 28.5819 382.607C27.4752 381.756 26.096 381.33 24.4444 381.33C23.4058 381.33 22.4438 381.637 21.5584 382.25V397.752C22.597 398.178 23.857 398.391 25.3383 398.391ZM53.9858 400H38.6618V399.208L41.0626 397.318V381.841L38.4064 380.947L38.9172 379.926H53.7304L55.1096 379.466V385.34L54.3434 385.595L51.3041 381.075H44.2551V389.171H48.2649L50.1293 385.902H50.921V393.666L49.8994 394.177L48.2904 390.32H44.2551V398.851H51.202L54.5988 393.819L55.365 394.075V400.46L53.9858 400ZM74.787 400H59.463V399.208L61.8637 397.318V381.841L59.2076 380.947L59.7184 379.926H74.5316L75.9107 379.466V385.34L75.1445 385.595L72.1053 381.075H65.0562V389.171H69.066L70.9304 385.902H71.7222V393.666L70.7006 394.177L69.0915 390.32H65.0562V398.851H72.0031L75.3999 393.819L76.1661 394.075V400.46L74.787 400ZM89.9182 390.218C91.076 390.218 91.987 389.903 92.651 389.273C93.3321 388.643 93.6726 387.775 93.6726 386.668C93.6726 385.102 93.2725 383.825 92.4722 382.837C91.689 381.833 90.5397 381.33 89.0243 381.33C87.8665 381.33 86.8109 381.662 85.8574 382.326V397.906L89.8161 399.004L89.3053 400.026H80.2641V399.234L82.6649 397.344V381.816L80.0087 380.947L80.5195 379.926H83.4821C85.1337 379.926 86.7598 379.874 88.3603 379.772C89.5522 379.704 90.429 379.67 90.9909 379.67C92.1828 379.67 93.2384 379.926 94.1579 380.436C95.0943 380.93 95.818 381.62 96.3288 382.505C96.8396 383.39 97.095 384.37 97.095 385.442C97.095 386.634 96.6608 387.758 95.7924 388.813C94.9241 389.869 93.8173 390.695 92.4722 391.291C91.1271 391.887 89.8076 392.151 88.5135 392.083L87.3131 391.214L87.8239 390.193H89.8927L89.9182 390.218ZM122.625 400H107.301V399.208L109.701 397.318V381.841L107.045 380.947L107.556 379.926H115.32V380.717L112.894 382.607V398.851H119.483L123.238 393.309L124.004 393.564V400.46L122.625 400ZM147.505 400H139.741V399.208L142.142 397.344L140.175 392.619H131.594L129.499 397.446L133.994 398.978L133.484 400H125.72V399.208L128.12 397.318L135.348 380.743L138.004 379.44L145.462 397.42L148.016 398.978L147.505 400ZM135.987 382.505L132.105 391.47H139.715L135.987 382.505ZM169.013 400H161.249V399.208L163.266 397.65L158.414 391.521L153.101 397.523L156.805 398.978L156.294 400H148.53V399.208L151.365 397.472L157.622 390.499L151.365 382.505L148.785 380.947L149.296 379.926H157.06V380.717L155.042 382.275L159.869 388.354L164.748 382.428L161.019 380.947L161.53 379.926H169.294V380.717L166.663 382.326L160.712 389.401L166.97 397.42L169.524 398.978L169.013 400ZM196.01 400.026H188.246V399.234L190.646 397.344V383.22L183.827 400.026H182.423L175.654 383.041V397.65L178.336 399.004L177.825 400.026H171.849V399.234L174.25 397.344V382.377L171.594 380.947L172.104 379.926H177.647L184.032 395.965L190.391 379.926H196.265V380.717L193.839 382.607V398.059L196.521 399.004L196.01 400.026ZM207.099 400H199.334V399.208L201.735 397.318V381.841L199.079 380.947L199.59 379.926H207.354V380.717L204.928 382.607V398.059L207.609 398.978L207.099 400ZM238.587 400H230.822V399.208L233.223 397.318V390.576H223.135V398.059L225.817 398.978L225.306 400H217.542V399.208L219.942 397.318V381.841L217.286 380.947L217.797 379.926H225.561V380.717L223.135 382.607V389.426H233.223V381.841L230.567 380.947L231.078 379.926H238.842V380.717L236.416 382.607V398.059L239.097 398.978L238.587 400ZM253.147 379.415C254.952 379.415 256.544 379.849 257.923 380.717C259.319 381.586 260.4 382.786 261.167 384.318C261.933 385.851 262.316 387.588 262.316 389.529C262.316 391.521 261.737 393.36 260.579 395.045C259.421 396.731 257.983 398.067 256.263 399.055C254.543 400.026 252.9 400.511 251.334 400.511C249.529 400.511 247.928 400.085 246.532 399.234C245.153 398.365 244.08 397.165 243.314 395.633C242.548 394.1 242.165 392.364 242.165 390.422C242.165 388.43 242.744 386.591 243.901 384.906C245.059 383.203 246.498 381.867 248.218 380.896C249.937 379.909 251.581 379.415 253.147 379.415ZM251.666 381.56C250.542 381.56 249.512 381.892 248.575 382.556C247.656 383.203 246.932 384.114 246.404 385.289C245.877 386.447 245.613 387.749 245.613 389.197C245.613 390.865 245.877 392.398 246.404 393.794C246.932 395.173 247.732 396.28 248.805 397.114C249.895 397.948 251.231 398.365 252.815 398.365C253.939 398.365 254.96 398.042 255.88 397.395C256.816 396.731 257.548 395.82 258.076 394.662C258.604 393.487 258.868 392.176 258.868 390.729C258.868 389.043 258.604 387.511 258.076 386.132C257.548 384.736 256.748 383.629 255.675 382.812C254.603 381.977 253.266 381.56 251.666 381.56ZM283.839 382.607V392.083C283.839 393.87 283.404 395.403 282.536 396.68C281.685 397.957 280.629 398.919 279.369 399.566C278.109 400.196 276.875 400.511 275.666 400.511C274.15 400.511 272.788 400.179 271.579 399.515C270.388 398.834 269.451 397.906 268.77 396.731C268.106 395.539 267.774 394.202 267.774 392.721V381.841L265.118 380.947L265.629 379.926H273.393V380.717L270.966 382.607V391.495C270.966 393.658 271.494 395.343 272.55 396.552C273.623 397.761 275.24 398.365 277.403 398.365C278.203 398.365 278.986 398.11 279.752 397.599C280.535 397.071 281.174 396.305 281.668 395.301C282.179 394.296 282.434 393.113 282.434 391.751V382.275L279.778 380.947L280.289 379.926H286.265V380.717L283.839 382.607ZM299.863 395.479C299.863 394.952 299.651 394.458 299.225 393.998C298.799 393.538 298.263 393.121 297.616 392.747C296.986 392.355 296.126 391.878 295.036 391.316C293.742 390.635 292.704 390.056 291.92 389.58C291.137 389.086 290.465 388.507 289.903 387.843C289.358 387.179 289.086 386.447 289.086 385.647C289.086 384.795 289.443 383.884 290.158 382.914C290.873 381.926 291.742 381.1 292.763 380.436C293.802 379.755 294.755 379.415 295.624 379.415C296.679 379.415 297.905 379.542 299.302 379.798C300.698 380.053 301.719 380.326 302.366 380.615V385.57H301.396C300.562 384.191 299.642 383.118 298.638 382.352C297.65 381.586 296.611 381.203 295.522 381.203C294.551 381.203 293.776 381.509 293.197 382.122C292.636 382.718 292.355 383.501 292.355 384.472C292.355 385.034 292.568 385.561 292.993 386.055C293.436 386.532 293.972 386.958 294.602 387.332C295.249 387.707 296.143 388.192 297.284 388.788C298.544 389.418 299.565 389.98 300.349 390.474C301.132 390.95 301.787 391.512 302.315 392.159C302.86 392.789 303.133 393.504 303.133 394.305C303.133 395.156 302.749 396.075 301.983 397.063C301.217 398.033 300.281 398.859 299.174 399.54C298.084 400.204 297.088 400.536 296.186 400.536C295.079 400.536 293.759 400.409 292.227 400.153C290.712 399.898 289.622 399.625 288.958 399.336V394.381H289.928C290.797 395.76 291.784 396.833 292.891 397.599C293.998 398.365 295.139 398.749 296.313 398.749C297.011 398.749 297.633 398.595 298.178 398.289C298.723 397.982 299.14 397.582 299.429 397.088C299.719 396.578 299.863 396.041 299.863 395.479ZM314.222 400H306.458V399.208L308.858 397.318V381.841L306.202 380.947L306.713 379.926H314.477V380.717L312.051 382.607V398.059L314.733 398.978L314.222 400ZM334.873 382.633V400.026H333.469L321.337 384.676V397.65L324.019 399.004L323.508 400.026H317.532V399.234L319.932 397.344V382.377L317.276 380.947L317.787 379.926H321.644L333.469 394.892V382.275L330.813 380.947L331.323 379.926H337.3V380.743L334.873 382.633ZM357.988 395.965L358.677 397.063L353.978 399.949C353.263 400.17 352.565 400.315 351.884 400.383C351.22 400.468 350.504 400.511 349.738 400.511C347.848 400.511 346.171 400.077 344.707 399.208C343.26 398.34 342.127 397.148 341.31 395.633C340.51 394.1 340.11 392.364 340.11 390.422C340.11 388.43 340.714 386.591 341.923 384.906C343.132 383.203 344.639 381.867 346.444 380.896C348.248 379.909 349.968 379.415 351.603 379.415C352.573 379.415 353.705 379.542 354.999 379.798C356.293 380.053 357.238 380.326 357.834 380.615V385.57H356.864C355.161 382.897 352.914 381.56 350.121 381.56C348.895 381.56 347.78 381.892 346.776 382.556C345.771 383.203 344.979 384.114 344.4 385.289C343.838 386.447 343.558 387.749 343.558 389.197C343.558 390.865 343.83 392.389 344.375 393.768C344.937 395.147 345.788 396.254 346.929 397.088C348.07 397.923 349.483 398.34 351.168 398.34C351.918 398.34 352.539 398.314 353.033 398.263C353.527 398.212 354.114 398.05 354.795 397.778V391.751L350.862 390.652L351.373 389.631H360.414V390.422L357.988 392.338V395.965Z" fill="url(#paint111_linear_110_2)" fill-opacity="0.2"/>
</g>
<defs>
<filter id="filter0_i_110_2" x="0.745178" y="0.927795" width="377.955" height="403.609" filterUnits="userSpaceOnUse" color-interpolation-filters="sRGB">
<feFlood flood-opacity="0" result="BackgroundImageFix"/>
<feBlend mode="normal" in="SourceGraphic" in2="BackgroundImageFix" result="shape"/>
<feColorMatrix in="SourceAlpha" type="matrix" values="0 0 0 0 0 0 0 0 0 0 0 0 0 0 0 0 0 0 127 0" result="hardAlpha"/>
<feOffset dx="4" dy="4"/>
<feGaussianBlur stdDeviation="12.5"/>
<feComposite in2="hardAlpha" operator="arithmetic" k2="-1" k3="1"/>
<feColorMatrix type="matrix" values="0 0 0 0 0.659167 0 0 0 0 0.487519 0 0 0 0 0.0461416 0 0 0 1 0"/>
<feBlend mode="normal" in2="shape" result="effect1_innerShadow_110_2"/>
</filter>
<filter id="filter1_d_110_2" x="0.745178" y="0.927795" width="381.955" height="378.572" filterUnits="userSpaceOnUse" color-interpolation-filters="sRGB">
<feFlood flood-opacity="0" result="BackgroundImageFix"/>
<feColorMatrix in="SourceAlpha" type="matrix" values="0 0 0 0 0 0 0 0 0 0 0 0 0 0 0 0 0 0 127 0" result="hardAlpha"/>
<feOffset dx="4" dy="4"/>
<feGaussianBlur stdDeviation="2"/>
<feComposite in2="hardAlpha" operator="out"/>
<feColorMatrix type="matrix" values="0 0 0 0 0 0 0 0 0 0 0 0 0 0 0 0 0 0 0.25 0"/>
<feBlend mode="normal" in2="BackgroundImageFix" result="effect1_dropShadow_110_2"/>
<feBlend mode="normal" in="SourceGraphic" in2="effect1_dropShadow_110_2" result="shape"/>
</filter>
<linearGradient id="paint0_linear_110_2" x1="139.5" y1="182" x2="139.5" y2="193" gradientUnits="userSpaceOnUse">
<stop stop-color="#F6B716"/>
<stop offset="0.49" stop-color="#F1CE72"/>
<stop offset="1" stop-color="#FFB800"/>
</linearGradient>
<linearGradient id="paint1_linear_110_2" x1="139.5" y1="182" x2="139.5" y2="193" gradientUnits="userSpaceOnUse">
<stop stop-color="#CA991A"/>
<stop offset="0.506" stop-color="#E7D7AF"/>
<stop offset="1" stop-color="#CA991A"/>
</linearGradient>
<linearGradient id="paint2_linear_110_2" x1="139.5" y1="182" x2="139.5" y2="193" gradientUnits="userSpaceOnUse">
<stop stop-color="#FFB800"/>
<stop offset="1" stop-color="#CA9919"/>
</linearGradient>
<linearGradient id="paint3_linear_110_2" x1="161.5" y1="182" x2="161.5" y2="193" gradientUnits="userSpaceOnUse">
<stop stop-color="#F6B716"/>
<stop offset="0.49" stop-color="#F1CE72"/>
<stop offset="1" stop-color="#FFB800"/>
</linearGradient>
<linearGradient id="paint4_linear_110_2" x1="161.5" y1="182" x2="161.5" y2="193" gradientUnits="userSpaceOnUse">
<stop stop-color="#CA991A"/>
<stop offset="0.506" stop-color="#E7D7AF"/>
<stop offset="1" stop-color="#CA991A"/>
</linearGradient>
<linearGradient id="paint5_linear_110_2" x1="161.5" y1="182" x2="161.5" y2="193" gradientUnits="userSpaceOnUse">
<stop stop-color="#FFB800"/>
<stop offset="1" stop-color="#CA9919"/>
</linearGradient>
<linearGradient id="paint6_linear_110_2" x1="213.5" y1="187" x2="213.5" y2="198" gradientUnits="userSpaceOnUse">
<stop stop-color="#F6B716"/>
<stop offset="0.49" stop-color="#F1CE72"/>
<stop offset="1" stop-color="#FFB800"/>
</linearGradient>
<linearGradient id="paint7_linear_110_2" x1="213.5" y1="187" x2="213.5" y2="198" gradientUnits="userSpaceOnUse">
<stop stop-color="#CA991A"/>
<stop offset="0.506" stop-color="#E7D7AF"/>
<stop offset="1" stop-color="#CA991A"/>
</linearGradient>
<linearGradient id="paint8_linear_110_2" x1="213.5" y1="187" x2="213.5" y2="198" gradientUnits="userSpaceOnUse">
<stop stop-color="#FFB800"/>
<stop offset="1" stop-color="#CA9919"/>
</linearGradient>
<linearGradient id="paint9_linear_110_2" x1="201.228" y1="221.082" x2="201.228" y2="319.934" gradientUnits="userSpaceOnUse">
<stop stop-color="#F6B716"/>
<stop offset="0.49" stop-color="#F1CE72"/>
<stop offset="1" stop-color="#FFB800"/>
</linearGradient>
<linearGradient id="paint10_linear_110_2" x1="201.228" y1="221.082" x2="201.228" y2="319.934" gradientUnits="userSpaceOnUse">
<stop stop-color="#CA991A"/>
<stop offset="0.506" stop-color="#E7D7AF"/>
<stop offset="1" stop-color="#CA991A"/>
</linearGradient>
<linearGradient id="paint11_linear_110_2" x1="201.228" y1="221.082" x2="201.228" y2="319.934" gradientUnits="userSpaceOnUse">
<stop stop-color="#FFB800"/>
<stop offset="1" stop-color="#CA9919"/>
</linearGradient>
<linearGradient id="paint12_linear_110_2" x1="160.25" y1="52" x2="160.25" y2="226" gradientUnits="userSpaceOnUse">
<stop stop-color="#D39A0A"/>
<stop offset="0.0001" stop-color="#FFB800"/>
</linearGradient>
<linearGradient id="paint13_linear_110_2" x1="228.75" y1="6" x2="228.75" y2="249" gradientUnits="userSpaceOnUse">
<stop stop-color="#FFB800"/>
<stop offset="0.0001" stop-color="#FFB800"/>
</linearGradient>
<linearGradient id="paint14_linear_110_2" x1="210.707" y1="168" x2="210.707" y2="331.038" gradientUnits="userSpaceOnUse">
<stop stop-color="#F6B716"/>
<stop offset="0.49" stop-color="#F1CE72"/>
<stop offset="1" stop-color="#FFB800"/>
</linearGradient>
<linearGradient id="paint15_linear_110_2" x1="210.707" y1="168" x2="210.707" y2="331.038" gradientUnits="userSpaceOnUse">
<stop stop-color="#CA991A"/>
<stop offset="0.506" stop-color="#E7D7AF"/>
<stop offset="1" stop-color="#CA991A"/>
</linearGradient>
<linearGradient id="paint16_linear_110_2" x1="210.707" y1="168" x2="210.707" y2="331.038" gradientUnits="userSpaceOnUse">
<stop stop-color="#FFB800"/>
<stop offset="1" stop-color="#CA9919"/>
</linearGradient>
<linearGradient id="paint17_linear_110_2" x1="62.0226" y1="249.519" x2="61.0226" y2="249.519" gradientUnits="userSpaceOnUse">
<stop stop-color="#FFB800"/>
<stop offset="1" stop-color="#CA9919"/>
</linearGradient>
<linearGradient id="paint18_linear_110_2" x1="105.998" y1="212.581" x2="105.287" y2="213.284" gradientUnits="userSpaceOnUse">
<stop stop-color="#FFB800"/>
<stop offset="1" stop-color="#CA9919"/>
</linearGradient>
<linearGradient id="paint19_linear_110_2" x1="71.2308" y1="215.936" x2="70.5234" y2="215.23" gradientUnits="userSpaceOnUse">
<stop stop-color="#FFB800"/>
<stop offset="1" stop-color="#CA9919"/>
</linearGradient>
<linearGradient id="paint20_linear_110_2" x1="171.708" y1="255.206" x2="171.708" y2="263.331" gradientUnits="userSpaceOnUse">
<stop stop-color="#F6B716"/>
<stop offset="0.49" stop-color="#F1CE72"/>
<stop offset="1" stop-color="#FFB800"/>
</linearGradient>
<linearGradient id="paint21_linear_110_2" x1="171.708" y1="255.206" x2="171.708" y2="263.331" gradientUnits="userSpaceOnUse">
<stop stop-color="#CA991A"/>
<stop offset="0.506" stop-color="#E7D7AF"/>
<stop offset="1" stop-color="#CA991A"/>
</linearGradient>
<linearGradient id="paint22_linear_110_2" x1="171.708" y1="255.206" x2="171.708" y2="263.331" gradientUnits="userSpaceOnUse">
<stop stop-color="#FFB800"/>
<stop offset="1" stop-color="#CA9919"/>
</linearGradient>
<linearGradient id="paint23_linear_110_2" x1="183.624" y1="255.206" x2="183.624" y2="263.331" gradientUnits="userSpaceOnUse">
<stop stop-color="#F6B716"/>
<stop offset="0.49" stop-color="#F1CE72"/>
<stop offset="1" stop-color="#FFB800"/>
</linearGradient>
<linearGradient id="paint24_linear_110_2" x1="183.624" y1="255.206" x2="183.624" y2="263.331" gradientUnits="userSpaceOnUse">
<stop stop-color="#CA991A"/>
<stop offset="0.506" stop-color="#E7D7AF"/>
<stop offset="1" stop-color="#CA991A"/>
</linearGradient>
<linearGradient id="paint25_linear_110_2" x1="183.624" y1="255.206" x2="183.624" y2="263.331" gradientUnits="userSpaceOnUse">
<stop stop-color="#FFB800"/>
<stop offset="1" stop-color="#CA9919"/>
</linearGradient>
<linearGradient id="paint26_linear_110_2" x1="171.708" y1="266.581" x2="171.708" y2="274.706" gradientUnits="userSpaceOnUse">
<stop stop-color="#F6B716"/>
<stop offset="0.49" stop-color="#F1CE72"/>
<stop offset="1" stop-color="#FFB800"/>
</linearGradient>
<linearGradient id="paint27_linear_110_2" x1="171.708" y1="266.581" x2="171.708" y2="274.706" gradientUnits="userSpaceOnUse">
<stop stop-color="#CA991A"/>
<stop offset="0.506" stop-color="#E7D7AF"/>
<stop offset="1" stop-color="#CA991A"/>
</linearGradient>
<linearGradient id="paint28_linear_110_2" x1="171.708" y1="266.581" x2="171.708" y2="274.706" gradientUnits="userSpaceOnUse">
<stop stop-color="#FFB800"/>
<stop offset="1" stop-color="#CA9919"/>
</linearGradient>
<linearGradient id="paint29_linear_110_2" x1="183.624" y1="266.581" x2="183.624" y2="274.706" gradientUnits="userSpaceOnUse">
<stop stop-color="#F6B716"/>
<stop offset="0.49" stop-color="#F1CE72"/>
<stop offset="1" stop-color="#FFB800"/>
</linearGradient>
<linearGradient id="paint30_linear_110_2" x1="183.624" y1="266.581" x2="183.624" y2="274.706" gradientUnits="userSpaceOnUse">
<stop stop-color="#CA991A"/>
<stop offset="0.506" stop-color="#E7D7AF"/>
<stop offset="1" stop-color="#CA991A"/>
</linearGradient>
<linearGradient id="paint31_linear_110_2" x1="183.624" y1="266.581" x2="183.624" y2="274.706" gradientUnits="userSpaceOnUse">
<stop stop-color="#FFB800"/>
<stop offset="1" stop-color="#CA9919"/>
</linearGradient>
<linearGradient id="paint32_linear_110_2" x1="89.1492" y1="218.916" x2="89.1492" y2="224.558" gradientUnits="userSpaceOnUse">
<stop stop-color="#F6B716"/>
<stop offset="0.49" stop-color="#F1CE72"/>
<stop offset="1" stop-color="#FFB800"/>
</linearGradient>
<linearGradient id="paint33_linear_110_2" x1="89.1492" y1="218.916" x2="89.1492" y2="224.558" gradientUnits="userSpaceOnUse">
<stop stop-color="#CA991A"/>
<stop offset="0.506" stop-color="#E7D7AF"/>
<stop offset="1" stop-color="#CA991A"/>
</linearGradient>
<linearGradient id="paint34_linear_110_2" x1="89.1492" y1="218.916" x2="89.1492" y2="224.558" gradientUnits="userSpaceOnUse">
<stop stop-color="#FFB800"/>
<stop offset="1" stop-color="#CA9919"/>
</linearGradient>
<linearGradient id="paint35_linear_110_2" x1="98.8111" y1="218.916" x2="98.8111" y2="224.558" gradientUnits="userSpaceOnUse">
<stop stop-color="#F6B716"/>
<stop offset="0.49" stop-color="#F1CE72"/>
<stop offset="1" stop-color="#FFB800"/>
</linearGradient>
<linearGradient id="paint36_linear_110_2" x1="98.8111" y1="218.916" x2="98.8111" y2="224.558" gradientUnits="userSpaceOnUse">
<stop stop-color="#CA991A"/>
<stop offset="0.506" stop-color="#E7D7AF"/>
<stop offset="1" stop-color="#CA991A"/>
</linearGradient>
<linearGradient id="paint37_linear_110_2" x1="98.8111" y1="218.916" x2="98.8111" y2="224.558" gradientUnits="userSpaceOnUse">
<stop stop-color="#FFB800"/>
<stop offset="1" stop-color="#CA9919"/>
</linearGradient>
<linearGradient id="paint38_linear_110_2" x1="89.1492" y1="226.815" x2="89.1492" y2="232.457" gradientUnits="userSpaceOnUse">
<stop stop-color="#F6B716"/>
<stop offset="0.49" stop-color="#F1CE72"/>
<stop offset="1" stop-color="#FFB800"/>
</linearGradient>
<linearGradient id="paint39_linear_110_2" x1="89.1492" y1="226.815" x2="89.1492" y2="232.457" gradientUnits="userSpaceOnUse">
<stop stop-color="#CA991A"/>
<stop offset="0.506" stop-color="#E7D7AF"/>
<stop offset="1" stop-color="#CA991A"/>
</linearGradient>
<linearGradient id="paint40_linear_110_2" x1="89.1492" y1="226.815" x2="89.1492" y2="232.457" gradientUnits="userSpaceOnUse">
<stop stop-color="#FFB800"/>
<stop offset="1" stop-color="#CA9919"/>
</linearGradient>
<linearGradient id="paint41_linear_110_2" x1="98.8111" y1="226.815" x2="98.8111" y2="232.457" gradientUnits="userSpaceOnUse">
<stop stop-color="#F6B716"/>
<stop offset="0.49" stop-color="#F1CE72"/>
<stop offset="1" stop-color="#FFB800"/>
</linearGradient>
<linearGradient id="paint42_linear_110_2" x1="98.8111" y1="226.815" x2="98.8111" y2="232.457" gradientUnits="userSpaceOnUse">
<stop stop-color="#CA991A"/>
<stop offset="0.506" stop-color="#E7D7AF"/>
<stop offset="1" stop-color="#CA991A"/>
</linearGradient>
<linearGradient id="paint43_linear_110_2" x1="98.8111" y1="226.815" x2="98.8111" y2="232.457" gradientUnits="userSpaceOnUse">
<stop stop-color="#FFB800"/>
<stop offset="1" stop-color="#CA9919"/>
</linearGradient>
<linearGradient id="paint44_linear_110_2" x1="190.482" y1="304.666" x2="184.891" y2="350.639" gradientUnits="userSpaceOnUse">
<stop stop-color="#F6B716"/>
<stop offset="0.49" stop-color="#F1CE72"/>
<stop offset="1" stop-color="#FFB800"/>
</linearGradient>
<linearGradient id="paint45_linear_110_2" x1="190.482" y1="304.666" x2="184.891" y2="350.639" gradientUnits="userSpaceOnUse">
<stop stop-color="#CA991A"/>
<stop offset="0.506" stop-color="#E7D7AF"/>
<stop offset="1" stop-color="#CA991A"/>
</linearGradient>
<linearGradient id="paint46_linear_110_2" x1="190.482" y1="304.666" x2="184.891" y2="350.639" gradientUnits="userSpaceOnUse">
<stop stop-color="#FFB800"/>
<stop offset="1" stop-color="#CA9919"/>
</linearGradient>
<linearGradient id="paint47_linear_110_2" x1="213.5" y1="57" x2="213.5" y2="68" gradientUnits="userSpaceOnUse">
<stop stop-color="#F6B716"/>
<stop offset="0.49" stop-color="#F1CE72"/>
<stop offset="1" stop-color="#FFB800"/>
</linearGradient>
<linearGradient id="paint48_linear_110_2" x1="213.5" y1="57" x2="213.5" y2="68" gradientUnits="userSpaceOnUse">
<stop stop-color="#CA991A"/>
<stop offset="0.506" stop-color="#E7D7AF"/>
<stop offset="1" stop-color="#CA991A"/>
</linearGradient>
<linearGradient id="paint49_linear_110_2" x1="213.5" y1="57" x2="213.5" y2="68" gradientUnits="userSpaceOnUse">
<stop stop-color="#FFB800"/>
<stop offset="1" stop-color="#CA9919"/>
</linearGradient>
<linearGradient id="paint50_linear_110_2" x1="213.5" y1="83" x2="213.5" y2="94" gradientUnits="userSpaceOnUse">
<stop stop-color="#F6B716"/>
<stop offset="0.49" stop-color="#F1CE72"/>
<stop offset="1" stop-color="#FFB800"/>
</linearGradient>
<linearGradient id="paint51_linear_110_2" x1="213.5" y1="83" x2="213.5" y2="94" gradientUnits="userSpaceOnUse">
<stop stop-color="#CA991A"/>
<stop offset="0.506" stop-color="#E7D7AF"/>
<stop offset="1" stop-color="#CA991A"/>
</linearGradient>
<linearGradient id="paint52_linear_110_2" x1="213.5" y1="83" x2="213.5" y2="94" gradientUnits="userSpaceOnUse">
<stop stop-color="#FFB800"/>
<stop offset="1" stop-color="#CA9919"/>
</linearGradient>
<linearGradient id="paint53_linear_110_2" x1="213.5" y1="109" x2="213.5" y2="120" gradientUnits="userSpaceOnUse">
<stop stop-color="#F6B716"/>
<stop offset="0.49" stop-color="#F1CE72"/>
<stop offset="1" stop-color="#FFB800"/>
</linearGradient>
<linearGradient id="paint54_linear_110_2" x1="213.5" y1="109" x2="213.5" y2="120" gradientUnits="userSpaceOnUse">
<stop stop-color="#CA991A"/>
<stop offset="0.506" stop-color="#E7D7AF"/>
<stop offset="1" stop-color="#CA991A"/>
</linearGradient>
<linearGradient id="paint55_linear_110_2" x1="213.5" y1="109" x2="213.5" y2="120" gradientUnits="userSpaceOnUse">
<stop stop-color="#FFB800"/>
<stop offset="1" stop-color="#CA9919"/>
</linearGradient>
<linearGradient id="paint56_linear_110_2" x1="213.5" y1="135" x2="213.5" y2="146" gradientUnits="userSpaceOnUse">
<stop stop-color="#F6B716"/>
<stop offset="0.49" stop-color="#F1CE72"/>
<stop offset="1" stop-color="#FFB800"/>
</linearGradient>
<linearGradient id="paint57_linear_110_2" x1="213.5" y1="135" x2="213.5" y2="146" gradientUnits="userSpaceOnUse">
<stop stop-color="#CA991A"/>
<stop offset="0.506" stop-color="#E7D7AF"/>
<stop offset="1" stop-color="#CA991A"/>
</linearGradient>
<linearGradient id="paint58_linear_110_2" x1="213.5" y1="135" x2="213.5" y2="146" gradientUnits="userSpaceOnUse">
<stop stop-color="#FFB800"/>
<stop offset="1" stop-color="#CA9919"/>
</linearGradient>
<linearGradient id="paint59_linear_110_2" x1="213.5" y1="161" x2="213.5" y2="172" gradientUnits="userSpaceOnUse">
<stop stop-color="#F6B716"/>
<stop offset="0.49" stop-color="#F1CE72"/>
<stop offset="1" stop-color="#FFB800"/>
</linearGradient>
<linearGradient id="paint60_linear_110_2" x1="213.5" y1="161" x2="213.5" y2="172" gradientUnits="userSpaceOnUse">
<stop stop-color="#CA991A"/>
<stop offset="0.506" stop-color="#E7D7AF"/>
<stop offset="1" stop-color="#CA991A"/>
</linearGradient>
<linearGradient id="paint61_linear_110_2" x1="213.5" y1="161" x2="213.5" y2="172" gradientUnits="userSpaceOnUse">
<stop stop-color="#FFB800"/>
<stop offset="1" stop-color="#CA9919"/>
</linearGradient>
<linearGradient id="paint62_linear_110_2" x1="243.5" y1="57" x2="243.5" y2="68" gradientUnits="userSpaceOnUse">
<stop stop-color="#F6B716"/>
<stop offset="0.49" stop-color="#F1CE72"/>
<stop offset="1" stop-color="#FFB800"/>
</linearGradient>
<linearGradient id="paint63_linear_110_2" x1="243.5" y1="57" x2="243.5" y2="68" gradientUnits="userSpaceOnUse">
<stop stop-color="#CA991A"/>
<stop offset="0.506" stop-color="#E7D7AF"/>
<stop offset="1" stop-color="#CA991A"/>
</linearGradient>
<linearGradient id="paint64_linear_110_2" x1="243.5" y1="57" x2="243.5" y2="68" gradientUnits="userSpaceOnUse">
<stop stop-color="#FFB800"/>
<stop offset="1" stop-color="#CA9919"/>
</linearGradient>
<linearGradient id="paint65_linear_110_2" x1="243.5" y1="83" x2="243.5" y2="94" gradientUnits="userSpaceOnUse">
<stop stop-color="#F6B716"/>
<stop offset="0.49" stop-color="#F1CE72"/>
<stop offset="1" stop-color="#FFB800"/>
</linearGradient>
<linearGradient id="paint66_linear_110_2" x1="243.5" y1="83" x2="243.5" y2="94" gradientUnits="userSpaceOnUse">
<stop stop-color="#CA991A"/>
<stop offset="0.506" stop-color="#E7D7AF"/>
<stop offset="1" stop-color="#CA991A"/>
</linearGradient>
<linearGradient id="paint67_linear_110_2" x1="243.5" y1="83" x2="243.5" y2="94" gradientUnits="userSpaceOnUse">
<stop stop-color="#FFB800"/>
<stop offset="1" stop-color="#CA9919"/>
</linearGradient>
<linearGradient id="paint68_linear_110_2" x1="243.5" y1="109" x2="243.5" y2="120" gradientUnits="userSpaceOnUse">
<stop stop-color="#F6B716"/>
<stop offset="0.49" stop-color="#F1CE72"/>
<stop offset="1" stop-color="#FFB800"/>
</linearGradient>
<linearGradient id="paint69_linear_110_2" x1="243.5" y1="109" x2="243.5" y2="120" gradientUnits="userSpaceOnUse">
<stop stop-color="#CA991A"/>
<stop offset="0.506" stop-color="#E7D7AF"/>
<stop offset="1" stop-color="#CA991A"/>
</linearGradient>
<linearGradient id="paint70_linear_110_2" x1="243.5" y1="109" x2="243.5" y2="120" gradientUnits="userSpaceOnUse">
<stop stop-color="#FFB800"/>
<stop offset="1" stop-color="#CA9919"/>
</linearGradient>
<linearGradient id="paint71_linear_110_2" x1="243.5" y1="135" x2="243.5" y2="146" gradientUnits="userSpaceOnUse">
<stop stop-color="#F6B716"/>
<stop offset="0.49" stop-color="#F1CE72"/>
<stop offset="1" stop-color="#FFB800"/>
</linearGradient>
<linearGradient id="paint72_linear_110_2" x1="243.5" y1="135" x2="243.5" y2="146" gradientUnits="userSpaceOnUse">
<stop stop-color="#CA991A"/>
<stop offset="0.506" stop-color="#E7D7AF"/>
<stop offset="1" stop-color="#CA991A"/>
</linearGradient>
<linearGradient id="paint73_linear_110_2" x1="243.5" y1="135" x2="243.5" y2="146" gradientUnits="userSpaceOnUse">
<stop stop-color="#FFB800"/>
<stop offset="1" stop-color="#CA9919"/>
</linearGradient>
<linearGradient id="paint74_linear_110_2" x1="243.5" y1="161" x2="243.5" y2="172" gradientUnits="userSpaceOnUse">
<stop stop-color="#F6B716"/>
<stop offset="0.49" stop-color="#F1CE72"/>
<stop offset="1" stop-color="#FFB800"/>
</linearGradient>
<linearGradient id="paint75_linear_110_2" x1="243.5" y1="161" x2="243.5" y2="172" gradientUnits="userSpaceOnUse">
<stop stop-color="#CA991A"/>
<stop offset="0.506" stop-color="#E7D7AF"/>
<stop offset="1" stop-color="#CA991A"/>
</linearGradient>
<linearGradient id="paint76_linear_110_2" x1="243.5" y1="161" x2="243.5" y2="172" gradientUnits="userSpaceOnUse">
<stop stop-color="#FFB800"/>
<stop offset="1" stop-color="#CA9919"/>
</linearGradient>
<linearGradient id="paint77_linear_110_2" x1="243.5" y1="187" x2="243.5" y2="198" gradientUnits="userSpaceOnUse">
<stop stop-color="#F6B716"/>
<stop offset="0.49" stop-color="#F1CE72"/>
<stop offset="1" stop-color="#FFB800"/>
</linearGradient>
<linearGradient id="paint78_linear_110_2" x1="243.5" y1="187" x2="243.5" y2="198" gradientUnits="userSpaceOnUse">
<stop stop-color="#CA991A"/>
<stop offset="0.506" stop-color="#E7D7AF"/>
<stop offset="1" stop-color="#CA991A"/>
</linearGradient>
<linearGradient id="paint79_linear_110_2" x1="243.5" y1="187" x2="243.5" y2="198" gradientUnits="userSpaceOnUse">
<stop stop-color="#FFB800"/>
<stop offset="1" stop-color="#CA9919"/>
</linearGradient>
<linearGradient id="paint80_linear_110_2" x1="139.5" y1="94" x2="139.5" y2="105" gradientUnits="userSpaceOnUse">
<stop stop-color="#F6B716"/>
<stop offset="0.49" stop-color="#F1CE72"/>
<stop offset="1" stop-color="#FFB800"/>
</linearGradient>
<linearGradient id="paint81_linear_110_2" x1="139.5" y1="94" x2="139.5" y2="105" gradientUnits="userSpaceOnUse">
<stop stop-color="#CA991A"/>
<stop offset="0.506" stop-color="#E7D7AF"/>
<stop offset="1" stop-color="#CA991A"/>
</linearGradient>
<linearGradient id="paint82_linear_110_2" x1="139.5" y1="94" x2="139.5" y2="105" gradientUnits="userSpaceOnUse">
<stop stop-color="#FFB800"/>
<stop offset="1" stop-color="#CA9919"/>
</linearGradient>
<linearGradient id="paint83_linear_110_2" x1="139.5" y1="124" x2="139.5" y2="135" gradientUnits="userSpaceOnUse">
<stop stop-color="#F6B716"/>
<stop offset="0.49" stop-color="#F1CE72"/>
<stop offset="1" stop-color="#FFB800"/>
</linearGradient>
<linearGradient id="paint84_linear_110_2" x1="139.5" y1="124" x2="139.5" y2="135" gradientUnits="userSpaceOnUse">
<stop stop-color="#CA991A"/>
<stop offset="0.506" stop-color="#E7D7AF"/>
<stop offset="1" stop-color="#CA991A"/>
</linearGradient>
<linearGradient id="paint85_linear_110_2" x1="139.5" y1="124" x2="139.5" y2="135" gradientUnits="userSpaceOnUse">
<stop stop-color="#FFB800"/>
<stop offset="1" stop-color="#CA9919"/>
</linearGradient>
<linearGradient id="paint86_linear_110_2" x1="139.5" y1="155" x2="139.5" y2="166" gradientUnits="userSpaceOnUse">
<stop stop-color="#F6B716"/>
<stop offset="0.49" stop-color="#F1CE72"/>
<stop offset="1" stop-color="#FFB800"/>
</linearGradient>
<linearGradient id="paint87_linear_110_2" x1="139.5" y1="155" x2="139.5" y2="166" gradientUnits="userSpaceOnUse">
<stop stop-color="#CA991A"/>
<stop offset="0.506" stop-color="#E7D7AF"/>
<stop offset="1" stop-color="#CA991A"/>
</linearGradient>
<linearGradient id="paint88_linear_110_2" x1="139.5" y1="155" x2="139.5" y2="166" gradientUnits="userSpaceOnUse">
<stop stop-color="#FFB800"/>
<stop offset="1" stop-color="#CA9919"/>
</linearGradient>
<linearGradient id="paint89_linear_110_2" x1="183.5" y1="94" x2="183.5" y2="105" gradientUnits="userSpaceOnUse">
<stop stop-color="#F6B716"/>
<stop offset="0.49" stop-color="#F1CE72"/>
<stop offset="1" stop-color="#FFB800"/>
</linearGradient>
<linearGradient id="paint90_linear_110_2" x1="183.5" y1="94" x2="183.5" y2="105" gradientUnits="userSpaceOnUse">
<stop stop-color="#CA991A"/>
<stop offset="0.506" stop-color="#E7D7AF"/>
<stop offset="1" stop-color="#CA991A"/>
</linearGradient>
<linearGradient id="paint91_linear_110_2" x1="183.5" y1="94" x2="183.5" y2="105" gradientUnits="userSpaceOnUse">
<stop stop-color="#FFB800"/>
<stop offset="1" stop-color="#CA9919"/>
</linearGradient>
<linearGradient id="paint92_linear_110_2" x1="183.5" y1="124" x2="183.5" y2="135" gradientUnits="userSpaceOnUse">
<stop stop-color="#F6B716"/>
<stop offset="0.49" stop-color="#F1CE72"/>
<stop offset="1" stop-color="#FFB800"/>
</linearGradient>
<linearGradient id="paint93_linear_110_2" x1="183.5" y1="124" x2="183.5" y2="135" gradientUnits="userSpaceOnUse">
<stop stop-color="#CA991A"/>
<stop offset="0.506" stop-color="#E7D7AF"/>
<stop offset="1" stop-color="#CA991A"/>
</linearGradient>
<linearGradient id="paint94_linear_110_2" x1="183.5" y1="124" x2="183.5" y2="135" gradientUnits="userSpaceOnUse">
<stop stop-color="#FFB800"/>
<stop offset="1" stop-color="#CA9919"/>
</linearGradient>
<linearGradient id="paint95_linear_110_2" x1="183.5" y1="155" x2="183.5" y2="166" gradientUnits="userSpaceOnUse">
<stop stop-color="#F6B716"/>
<stop offset="0.49" stop-color="#F1CE72"/>
<stop offset="1" stop-color="#FFB800"/>
</linearGradient>
<linearGradient id="paint96_linear_110_2" x1="183.5" y1="155" x2="183.5" y2="166" gradientUnits="userSpaceOnUse">
<stop stop-color="#CA991A"/>
<stop offset="0.506" stop-color="#E7D7AF"/>
<stop offset="1" stop-color="#CA991A"/>
</linearGradient>
<linearGradient id="paint97_linear_110_2" x1="183.5" y1="155" x2="183.5" y2="166" gradientUnits="userSpaceOnUse">
<stop stop-color="#FFB800"/>
<stop offset="1" stop-color="#CA9919"/>
</linearGradient>
<linearGradient id="paint98_linear_110_2" x1="161.5" y1="94" x2="161.5" y2="105" gradientUnits="userSpaceOnUse">
<stop stop-color="#F6B716"/>
<stop offset="0.49" stop-color="#F1CE72"/>
<stop offset="1" stop-color="#FFB800"/>
</linearGradient>
<linearGradient id="paint99_linear_110_2" x1="161.5" y1="94" x2="161.5" y2="105" gradientUnits="userSpaceOnUse">
<stop stop-color="#CA991A"/>
<stop offset="0.506" stop-color="#E7D7AF"/>
<stop offset="1" stop-color="#CA991A"/>
</linearGradient>
<linearGradient id="paint100_linear_110_2" x1="161.5" y1="94" x2="161.5" y2="105" gradientUnits="userSpaceOnUse">
<stop stop-color="#FFB800"/>
<stop offset="1" stop-color="#CA9919"/>
</linearGradient>
<linearGradient id="paint101_linear_110_2" x1="161.5" y1="124" x2="161.5" y2="135" gradientUnits="userSpaceOnUse">
<stop stop-color="#F6B716"/>
<stop offset="0.49" stop-color="#F1CE72"/>
<stop offset="1" stop-color="#FFB800"/>
</linearGradient>
<linearGradient id="paint102_linear_110_2" x1="161.5" y1="124" x2="161.5" y2="135" gradientUnits="userSpaceOnUse">
<stop stop-color="#CA991A"/>
<stop offset="0.506" stop-color="#E7D7AF"/>
<stop offset="1" stop-color="#CA991A"/>
</linearGradient>
<linearGradient id="paint103_linear_110_2" x1="161.5" y1="124" x2="161.5" y2="135" gradientUnits="userSpaceOnUse">
<stop stop-color="#FFB800"/>
<stop offset="1" stop-color="#CA9919"/>
</linearGradient>
<linearGradient id="paint104_linear_110_2" x1="161.5" y1="155" x2="161.5" y2="166" gradientUnits="userSpaceOnUse">
<stop stop-color="#F6B716"/>
<stop offset="0.49" stop-color="#F1CE72"/>
<stop offset="1" stop-color="#FFB800"/>
</linearGradient>
<linearGradient id="paint105_linear_110_2" x1="161.5" y1="155" x2="161.5" y2="166" gradientUnits="userSpaceOnUse">
<stop stop-color="#CA991A"/>
<stop offset="0.506" stop-color="#E7D7AF"/>
<stop offset="1" stop-color="#CA991A"/>
</linearGradient>
<linearGradient id="paint106_linear_110_2" x1="161.5" y1="155" x2="161.5" y2="166" gradientUnits="userSpaceOnUse">
<stop stop-color="#FFB800"/>
<stop offset="1" stop-color="#CA9919"/>
</linearGradient>
<linearGradient id="paint107_linear_110_2" x1="272.25" y1="337" x2="272.25" y2="371.5" gradientUnits="userSpaceOnUse">
<stop stop-color="#F6B716"/>
<stop offset="0.49" stop-color="#F1CE72"/>
<stop offset="1" stop-color="#FFB800"/>
</linearGradient>
<linearGradient id="paint108_linear_110_2" x1="272.25" y1="337" x2="272.25" y2="371.5" gradientUnits="userSpaceOnUse">
<stop stop-color="#CA991A"/>
<stop offset="0.506" stop-color="#E7D7AF"/>
<stop offset="1" stop-color="#CA991A"/>
</linearGradient>
<linearGradient id="paint109_linear_110_2" x1="272.25" y1="337" x2="272.25" y2="371.5" gradientUnits="userSpaceOnUse">
<stop stop-color="#FFB800"/>
<stop offset="1" stop-color="#CA9919"/>
</linearGradient>
<linearGradient id="paint110_linear_110_2" x1="188" y1="356" x2="188" y2="400" gradientUnits="userSpaceOnUse">
<stop stop-color="#F6B716"/>
<stop offset="0.49" stop-color="#F1CE72"/>
<stop offset="1" stop-color="#FFB800"/>
</linearGradient>
<linearGradient id="paint111_linear_110_2" x1="188" y1="356" x2="188" y2="400" gradientUnits="userSpaceOnUse">
<stop stop-color="#CA991A"/>
<stop offset="0.506" stop-color="#E7D7AF"/>
<stop offset="1" stop-color="#CA991A"/>
</linearGradient>
</defs>
</svg>
