<svg width="386" height="409" viewBox="0 0 386 409" fill="none" xmlns="http://www.w3.org/2000/svg">
<g filter="url(#filter0_d_80_94)">
<rect x="133" y="182" width="11" height="11" fill="url(#paint0_linear_80_94)"/>
<rect x="155" y="182" width="11" height="11" fill="url(#paint1_linear_80_94)"/>
<rect x="207" y="187" width="11" height="11" fill="url(#paint2_linear_80_94)"/>
<path d="M304.496 319.934H294.746L177.207 234.353L108.146 279.31H95.9593L177.207 221.082L304.496 319.934Z" fill="url(#paint3_linear_80_94)"/>
<path d="M122 226V94.5L196.5 52V188.5" stroke="black" stroke-opacity="0.9" stroke-width="5"/>
<path d="M196.5 54V6L259 54V249" stroke="black" stroke-opacity="0.9" stroke-width="5"/>
<path d="M343.225 331.038H330.74L180.229 189.887L91.7949 264.036H76.1889L180.229 168L343.225 331.038Z" fill="url(#paint4_linear_80_94)"/>
<line x1="63.1892" y1="228.665" x2="63.1892" y2="270.373" stroke="url(#paint5_linear_80_94)" stroke-width="4.33324"/>
<line x1="94.1639" y1="197.789" x2="119.68" y2="223.562" stroke="url(#paint6_linear_80_94)" stroke-width="5.41654"/>
<line x1="95.0036" y1="194.976" x2="49.2895" y2="240.726" stroke="url(#paint7_linear_80_94)" stroke-width="5.41654"/>
<rect x="166.645" y="255.206" width="8.12482" height="8.12482" fill="url(#paint8_linear_80_94)"/>
<rect x="178.562" y="255.206" width="8.12482" height="8.12482" fill="url(#paint9_linear_80_94)"/>
<rect x="166.645" y="266.581" width="8.12482" height="8.12482" fill="url(#paint10_linear_80_94)"/>
<rect x="178.562" y="266.581" width="8.12482" height="8.12482" fill="url(#paint11_linear_80_94)"/>
<rect x="84.8554" y="218.916" width="6.58769" height="5.64223" fill="url(#paint12_linear_80_94)"/>
<rect x="94.5173" y="218.916" width="6.58769" height="5.64223" fill="url(#paint13_linear_80_94)"/>
<rect x="84.8553" y="226.815" width="6.58769" height="5.64223" fill="url(#paint14_linear_80_94)"/>
<rect x="94.5173" y="226.815" width="6.58769" height="5.64223" fill="url(#paint15_linear_80_94)"/>
<path d="M8.75194 323.613L8.10233e-06 328.278L13.3223 324.169L27.3204 321.233L37.1224 319.151L46.9243 317.069L56.8643 316.095L66.739 315.659L76.3121 315.459L88.5736 315.586L108.468 318.005L135.19 322.618L164.948 331.421L177.257 335.646L190.609 340.27L205.842 345.124L220.033 349.577L236.204 353.453L251.699 356.156L263.259 357.562L268.636 358.216L276.531 358.357L284.996 358.295L292.084 358.339L300.077 357.674L308.167 356.202L316.055 354.16L329.581 350.621L340.418 346.755L353.733 340.463L364.058 334.079L373.373 327.027L363.644 330.755L349.18 335.271L334.645 338.142L323.262 339.759L314.194 340.293L304.32 340.729L298.845 340.882L294.274 340.326L289.166 339.705L285.671 339.28L282.176 338.855L279.756 338.561L276.799 338.201L271.96 337.613L267.927 337.122L263.088 336.534L239.993 331.27L214.641 324.368L181.184 314.57L165.315 310.458L144.809 306.328L122.764 303.647L101.06 302.645L81.2455 304.055L65.1947 305.922L49.1185 310.243L33.9143 314.123L22.5066 318.192L8.75194 323.613Z" fill="url(#paint16_linear_80_94)"/>
<rect x="207" y="57" width="11" height="11" fill="url(#paint17_linear_80_94)"/>
<rect x="207" y="83" width="11" height="11" fill="url(#paint18_linear_80_94)"/>
<rect x="207" y="109" width="11" height="11" fill="url(#paint19_linear_80_94)"/>
<rect x="207" y="135" width="11" height="11" fill="url(#paint20_linear_80_94)"/>
<rect x="207" y="161" width="11" height="11" fill="url(#paint21_linear_80_94)"/>
<rect x="237" y="57" width="11" height="11" fill="url(#paint22_linear_80_94)"/>
<rect x="237" y="83" width="11" height="11" fill="url(#paint23_linear_80_94)"/>
<rect x="237" y="109" width="11" height="11" fill="url(#paint24_linear_80_94)"/>
<rect x="237" y="135" width="11" height="11" fill="url(#paint25_linear_80_94)"/>
<rect x="237" y="161" width="11" height="11" fill="url(#paint26_linear_80_94)"/>
<rect x="237" y="187" width="11" height="11" fill="url(#paint27_linear_80_94)"/>
<rect x="133" y="94" width="11" height="11" fill="url(#paint28_linear_80_94)"/>
<rect x="133" y="124" width="11" height="11" fill="url(#paint29_linear_80_94)"/>
<rect x="133" y="155" width="11" height="11" fill="url(#paint30_linear_80_94)"/>
<rect x="177" y="94" width="11" height="11" fill="url(#paint31_linear_80_94)"/>
<rect x="177" y="124" width="11" height="11" fill="url(#paint32_linear_80_94)"/>
<rect x="177" y="155" width="11" height="11" fill="url(#paint33_linear_80_94)"/>
<rect x="155" y="94" width="11" height="11" fill="url(#paint34_linear_80_94)"/>
<rect x="155" y="124" width="11" height="11" fill="url(#paint35_linear_80_94)"/>
<rect x="155" y="155" width="11" height="11" fill="url(#paint36_linear_80_94)"/>
<path d="M364 341L369.5 337L362.5 343.5L359.5 346L355.5 349L348.5 354L337 359.5L326.5 364L318 367L307 370L294.5 371.5H282H270L250 368.5L230 364L203 356.5L185.5 352L173 349L185.5 350.5L203 354L230 359.5L250 364L270 366H282H294.5L306 364L318 361.5L330.5 358L340 354L348.5 350.5L357 346L364 341Z" fill="url(#paint37_linear_80_94)"/>
<path d="M14.0804 379.696C15.8682 379.696 17.4432 380.121 18.8053 380.973C20.1845 381.807 21.2486 382.973 21.9978 384.472C22.764 385.97 23.1471 387.664 23.1471 389.554C23.1471 391.495 22.5682 393.291 21.4104 394.943C20.2696 396.578 18.8479 397.88 17.1452 398.851C15.4426 399.804 13.8165 400.281 12.2671 400.281C11.4498 400.281 10.6581 400.238 9.89186 400.153C8.56378 400.068 7.55921 400.026 6.87814 400.026H3.48132V399.106L5.88208 397.216V381.943L3.17484 381.075L3.76226 379.926H6.8526C8.45311 379.926 10.0196 379.874 11.552 379.772C12.7098 379.704 13.5526 379.67 14.0804 379.67V379.696ZM12.9822 398.263C14.1741 398.263 15.2553 397.94 16.2258 397.293C17.1963 396.646 17.9625 395.752 18.5244 394.611C19.0863 393.453 19.3672 392.159 19.3672 390.729C19.3672 389.009 19.1033 387.451 18.5755 386.055C18.0476 384.642 17.2389 383.518 16.1492 382.684C15.0595 381.85 13.7058 381.432 12.0883 381.432C11.0837 381.432 10.1728 381.722 9.35552 382.301V397.676C10.3941 398.084 11.603 398.289 12.9822 398.289V398.263ZM41.8049 400.026H26.3276V399.106L28.7284 397.216V381.969L26.0212 381.075L26.6086 379.926H41.5495L43.0308 379.466V385.468L42.1369 385.774L39.0721 381.228H32.2018V389.094H36.0073L37.8717 385.902H38.7912V393.589L37.6419 394.177L36.0328 390.397H32.2018V398.697H38.9444L42.3923 393.615L43.2862 393.947V400.485L41.8049 400.026ZM62.631 400.026H47.1537V399.106L49.5545 397.216V381.969L46.8472 381.075L47.4347 379.926H62.3756L63.8569 379.466V385.468L62.963 385.774L59.8982 381.228H53.0279V389.094H56.8334L58.6978 385.902H59.6172V393.589L58.4679 394.177L56.8589 390.397H53.0279V398.697H59.7705L63.2184 393.615L64.1123 393.947V400.485L62.631 400.026ZM77.7616 390.193C78.8683 390.193 79.7367 389.878 80.3667 389.248C81.0137 388.618 81.3372 387.749 81.3372 386.643C81.3372 385.127 80.9541 383.884 80.1879 382.914C79.4387 381.943 78.332 381.458 76.8677 381.458C75.744 381.458 74.7394 381.773 73.854 382.403V397.804L77.9149 398.876L77.3274 400.026H67.9798V399.106L70.3806 397.216V381.943L67.6733 381.075L68.2607 379.926H71.4788C73.0963 379.926 74.6883 379.874 76.2548 379.772C77.4466 379.704 78.315 379.67 78.8598 379.67C80.0858 379.67 81.1669 379.926 82.1034 380.436C83.0569 380.947 83.7891 381.645 84.2999 382.531C84.8277 383.399 85.0916 384.378 85.0916 385.468C85.0916 386.66 84.6489 387.792 83.7635 388.865C82.8781 389.92 81.7544 390.746 80.3922 391.342C79.0301 391.938 77.6935 392.202 76.3825 392.134L75.2076 391.316L75.795 390.167H77.7361L77.7616 390.193ZM110.594 400H95.0911V399.081L97.4919 397.191V381.943L94.7846 381.075L95.372 379.926H103.392V380.845L100.965 382.735V398.697H107.376L111.181 393.104L112.075 393.436V400.46L110.594 400ZM135.626 400H127.504V399.081L130.007 397.267L128.117 392.721H119.638L117.697 397.242L122.09 398.851L121.502 400H113.636V399.081L116.113 397.165L123.213 380.743L126.227 379.44L133.634 397.369L136.188 398.851L135.626 400ZM123.98 382.684L120.225 391.393H127.581L123.98 382.684ZM157.281 400.026H149.287V399.106L151.305 397.599L146.58 391.699L141.472 397.369L145.048 398.851L144.46 400H136.62V399.081L139.454 397.318L145.635 390.525L139.327 382.582L136.824 381.075L137.411 379.926H145.405V380.845L143.362 382.326L148.061 388.201L152.735 382.607L149.134 381.1L149.696 379.951H157.562V380.871L154.881 382.531L149.032 389.375L155.443 397.446L157.843 398.876L157.281 400.026ZM184.583 400.026H176.564V399.106L178.964 397.216V383.476L172.247 400.026H170.664L163.972 383.297V397.574L166.68 398.876L166.118 400.026H160.014V399.106L162.414 397.216V382.454L159.707 381.075L160.295 379.926H166.169L172.426 395.582L178.683 379.926H184.864V380.845L182.438 382.735V397.982L185.145 398.876L184.583 400.026ZM195.843 399.974H187.823V399.055L190.224 397.165V381.943L187.517 381.075L188.104 379.926H196.124V380.845L193.697 382.76V397.957L196.405 398.825L195.843 399.974ZM227.505 399.974H219.486V399.055L221.887 397.165V390.627H212.079V397.931L214.787 398.825L214.225 399.974H206.205V399.055L208.606 397.165V381.943L205.899 381.075L206.486 379.926H214.506V380.845L212.079 382.76V389.35H221.887V381.943L219.179 381.075L219.767 379.926H227.786V380.845L225.36 382.76V397.957L228.067 398.825L227.505 399.974ZM242.088 379.415C243.927 379.415 245.553 379.849 246.966 380.717C248.379 381.586 249.469 382.786 250.235 384.318C251.018 385.851 251.41 387.588 251.41 389.529C251.41 391.521 250.822 393.36 249.648 395.045C248.473 396.731 247.008 398.067 245.255 399.055C243.518 400.026 241.858 400.511 240.274 400.511C238.453 400.511 236.835 400.085 235.422 399.234C234.009 398.365 232.91 397.165 232.127 395.633C231.361 394.1 230.978 392.364 230.978 390.422C230.978 388.43 231.565 386.591 232.74 384.906C233.915 383.203 235.371 381.867 237.107 380.896C238.844 379.909 240.504 379.415 242.088 379.415ZM240.606 381.713C239.517 381.713 238.521 382.037 237.618 382.684C236.733 383.331 236.026 384.225 235.498 385.366C234.988 386.506 234.732 387.783 234.732 389.197C234.732 390.848 234.988 392.355 235.498 393.717C236.009 395.079 236.792 396.169 237.848 396.986C238.904 397.804 240.206 398.212 241.756 398.212C242.845 398.212 243.833 397.889 244.718 397.242C245.621 396.595 246.327 395.701 246.838 394.56C247.366 393.419 247.63 392.142 247.63 390.729C247.63 389.06 247.375 387.545 246.864 386.183C246.353 384.821 245.57 383.74 244.514 382.939C243.458 382.122 242.156 381.713 240.606 381.713ZM272.929 382.735V392.083C272.929 393.87 272.495 395.403 271.627 396.68C270.758 397.957 269.686 398.919 268.409 399.566C267.132 400.196 265.889 400.511 264.68 400.511C263.13 400.511 261.743 400.179 260.517 399.515C259.308 398.834 258.363 397.906 257.682 396.731C257.001 395.539 256.66 394.202 256.66 392.721V381.943L253.978 381.075L254.54 379.926H262.56V380.845L260.134 382.735V391.546C260.134 393.641 260.653 395.275 261.692 396.45C262.73 397.625 264.305 398.212 266.416 398.212C267.2 398.212 267.966 397.965 268.715 397.472C269.481 396.961 270.111 396.22 270.605 395.25C271.099 394.279 271.346 393.13 271.346 391.802V382.352L268.638 381.075L269.2 379.926H275.355V380.845L272.929 382.735ZM288.698 395.53C288.698 395.003 288.486 394.509 288.06 394.049C287.634 393.589 287.106 393.172 286.477 392.798C285.847 392.406 284.995 391.929 283.923 391.367C282.646 390.703 281.607 390.125 280.807 389.631C280.023 389.137 279.351 388.558 278.789 387.894C278.244 387.213 277.972 386.464 277.972 385.647C277.972 384.795 278.329 383.884 279.044 382.914C279.777 381.926 280.67 381.1 281.726 380.436C282.782 379.755 283.752 379.415 284.638 379.415C285.71 379.415 286.953 379.542 288.366 379.798C289.797 380.053 290.844 380.326 291.508 380.615V385.698H290.256C289.456 384.318 288.571 383.246 287.6 382.48C286.63 381.713 285.608 381.33 284.535 381.33C283.616 381.33 282.892 381.62 282.365 382.199C281.837 382.76 281.573 383.493 281.573 384.395C281.573 384.957 281.786 385.485 282.211 385.979C282.654 386.455 283.199 386.889 283.846 387.281C284.493 387.673 285.361 388.149 286.451 388.711C287.745 389.392 288.767 389.971 289.516 390.448C290.282 390.925 290.929 391.487 291.457 392.134C292.002 392.781 292.274 393.504 292.274 394.305C292.274 395.156 291.882 396.075 291.099 397.063C290.333 398.033 289.388 398.859 288.264 399.54C287.141 400.204 286.119 400.536 285.2 400.536C284.076 400.536 282.739 400.409 281.19 400.153C279.64 399.898 278.525 399.625 277.844 399.336V394.253H279.095C279.947 395.633 280.909 396.705 281.981 397.472C283.071 398.238 284.186 398.621 285.327 398.621C286.008 398.621 286.604 398.476 287.115 398.187C287.626 397.897 288.017 397.523 288.29 397.063C288.562 396.586 288.698 396.075 288.698 395.53ZM303.44 399.974H295.42V399.055L297.821 397.165V381.943L295.114 381.075L295.701 379.926H303.721V380.845L301.295 382.76V397.957L304.002 398.825L303.44 399.974ZM324.292 382.76V400H322.734L310.628 385.008V397.523L313.488 398.851L312.926 400H306.669V399.081L309.07 397.191V382.531L306.363 381.075L306.95 379.926H310.934L322.734 394.56V382.403L319.873 381.075L320.461 379.926H326.718V380.845L324.292 382.76ZM347.556 395.863L348.246 397.063L343.546 399.949C342.797 400.17 342.074 400.315 341.376 400.383C340.694 400.468 339.962 400.511 339.179 400.511C337.255 400.511 335.552 400.077 334.071 399.208C332.59 398.34 331.44 397.148 330.623 395.633C329.806 394.1 329.397 392.364 329.397 390.422C329.397 388.43 330.01 386.591 331.236 384.906C332.462 383.203 333.986 381.867 335.808 380.896C337.647 379.909 339.392 379.415 341.044 379.415C342.031 379.415 343.18 379.542 344.491 379.798C345.819 380.053 346.79 380.326 347.403 380.615V385.8H346.152C344.466 383.075 342.269 381.713 339.562 381.713C338.37 381.713 337.281 382.037 336.293 382.684C335.323 383.331 334.556 384.225 333.994 385.366C333.433 386.506 333.152 387.783 333.152 389.197C333.152 390.831 333.424 392.329 333.969 393.692C334.514 395.054 335.34 396.143 336.446 396.961C337.57 397.778 338.958 398.187 340.609 398.187C341.307 398.187 341.895 398.17 342.372 398.136C342.848 398.084 343.41 397.948 344.057 397.727V391.853L340.073 390.78L340.66 389.631H349.957V390.55L347.556 392.466V395.863Z" fill="url(#paint38_linear_80_94)"/>
</g>
<defs>
<filter id="filter0_d_80_94" x="0" y="0.927795" width="385.373" height="407.609" filterUnits="userSpaceOnUse" color-interpolation-filters="sRGB">
<feFlood flood-opacity="0" result="BackgroundImageFix"/>
<feColorMatrix in="SourceAlpha" type="matrix" values="0 0 0 0 0 0 0 0 0 0 0 0 0 0 0 0 0 0 127 0" result="hardAlpha"/>
<feOffset dx="8" dy="4"/>
<feGaussianBlur stdDeviation="2"/>
<feComposite in2="hardAlpha" operator="out"/>
<feColorMatrix type="matrix" values="0 0 0 0 0 0 0 0 0 0 0 0 0 0 0 0 0 0 0.25 0"/>
<feBlend mode="normal" in2="BackgroundImageFix" result="effect1_dropShadow_80_94"/>
<feBlend mode="normal" in="SourceGraphic" in2="effect1_dropShadow_80_94" result="shape"/>
</filter>
<linearGradient id="paint0_linear_80_94" x1="138.5" y1="182" x2="138.5" y2="193" gradientUnits="userSpaceOnUse">
<stop stop-opacity="0.9"/>
<stop offset="1" stop-color="#FF0000"/>
</linearGradient>
<linearGradient id="paint1_linear_80_94" x1="160.5" y1="182" x2="160.5" y2="193" gradientUnits="userSpaceOnUse">
<stop stop-opacity="0.9"/>
<stop offset="1" stop-color="#FF0000"/>
</linearGradient>
<linearGradient id="paint2_linear_80_94" x1="212.5" y1="187" x2="212.5" y2="198" gradientUnits="userSpaceOnUse">
<stop stop-opacity="0.9"/>
<stop offset="1" stop-color="#FF0000"/>
</linearGradient>
<linearGradient id="paint3_linear_80_94" x1="200.228" y1="221.082" x2="200.228" y2="319.934" gradientUnits="userSpaceOnUse">
<stop stop-opacity="0.9"/>
<stop offset="1" stop-color="#FF0000"/>
</linearGradient>
<linearGradient id="paint4_linear_80_94" x1="209.707" y1="168" x2="209.707" y2="331.038" gradientUnits="userSpaceOnUse">
<stop stop-opacity="0.9"/>
<stop offset="1" stop-color="#FF0000"/>
</linearGradient>
<linearGradient id="paint5_linear_80_94" x1="60.5226" y1="228.665" x2="60.5226" y2="270.373" gradientUnits="userSpaceOnUse">
<stop stop-color="#FF0000"/>
<stop offset="1" stop-opacity="0.9"/>
</linearGradient>
<linearGradient id="paint6_linear_80_94" x1="91.884" y1="200.047" x2="117.4" y2="225.819" gradientUnits="userSpaceOnUse">
<stop stop-color="#FF0000"/>
<stop offset="1" stop-opacity="0.9"/>
</linearGradient>
<linearGradient id="paint7_linear_80_94" x1="92.7341" y1="192.708" x2="47.02" y2="238.458" gradientUnits="userSpaceOnUse">
<stop stop-color="#FF0000"/>
<stop offset="1" stop-opacity="0.9"/>
</linearGradient>
<linearGradient id="paint8_linear_80_94" x1="170.708" y1="255.206" x2="170.708" y2="263.331" gradientUnits="userSpaceOnUse">
<stop stop-opacity="0.9"/>
<stop offset="1" stop-color="#FF0000"/>
</linearGradient>
<linearGradient id="paint9_linear_80_94" x1="182.624" y1="255.206" x2="182.624" y2="263.331" gradientUnits="userSpaceOnUse">
<stop stop-opacity="0.9"/>
<stop offset="1" stop-color="#FF0000"/>
</linearGradient>
<linearGradient id="paint10_linear_80_94" x1="170.708" y1="266.581" x2="170.708" y2="274.706" gradientUnits="userSpaceOnUse">
<stop stop-opacity="0.9"/>
<stop offset="1" stop-color="#FF0000"/>
</linearGradient>
<linearGradient id="paint11_linear_80_94" x1="182.624" y1="266.581" x2="182.624" y2="274.706" gradientUnits="userSpaceOnUse">
<stop stop-opacity="0.9"/>
<stop offset="1" stop-color="#FF0000"/>
</linearGradient>
<linearGradient id="paint12_linear_80_94" x1="88.1492" y1="218.916" x2="88.1492" y2="224.558" gradientUnits="userSpaceOnUse">
<stop stop-opacity="0.9"/>
<stop offset="1" stop-color="#FF0000"/>
</linearGradient>
<linearGradient id="paint13_linear_80_94" x1="97.8112" y1="218.916" x2="97.8112" y2="224.558" gradientUnits="userSpaceOnUse">
<stop stop-opacity="0.9"/>
<stop offset="1" stop-color="#FF0000"/>
</linearGradient>
<linearGradient id="paint14_linear_80_94" x1="88.1492" y1="226.815" x2="88.1492" y2="232.457" gradientUnits="userSpaceOnUse">
<stop stop-opacity="0.9"/>
<stop offset="1" stop-color="#FF0000"/>
</linearGradient>
<linearGradient id="paint15_linear_80_94" x1="97.8112" y1="226.815" x2="97.8112" y2="232.457" gradientUnits="userSpaceOnUse">
<stop stop-opacity="0.9"/>
<stop offset="1" stop-color="#FF0000"/>
</linearGradient>
<linearGradient id="paint16_linear_80_94" x1="189.482" y1="304.666" x2="183.891" y2="350.639" gradientUnits="userSpaceOnUse">
<stop stop-opacity="0.9"/>
<stop offset="1" stop-color="#FF0000"/>
</linearGradient>
<linearGradient id="paint17_linear_80_94" x1="212.5" y1="57" x2="212.5" y2="68" gradientUnits="userSpaceOnUse">
<stop stop-opacity="0.9"/>
<stop offset="1" stop-color="#FF0000"/>
</linearGradient>
<linearGradient id="paint18_linear_80_94" x1="212.5" y1="83" x2="212.5" y2="94" gradientUnits="userSpaceOnUse">
<stop stop-opacity="0.9"/>
<stop offset="1" stop-color="#FF0000"/>
</linearGradient>
<linearGradient id="paint19_linear_80_94" x1="212.5" y1="109" x2="212.5" y2="120" gradientUnits="userSpaceOnUse">
<stop stop-opacity="0.9"/>
<stop offset="1" stop-color="#FF0000"/>
</linearGradient>
<linearGradient id="paint20_linear_80_94" x1="212.5" y1="135" x2="212.5" y2="146" gradientUnits="userSpaceOnUse">
<stop stop-opacity="0.9"/>
<stop offset="1" stop-color="#FF0000"/>
</linearGradient>
<linearGradient id="paint21_linear_80_94" x1="212.5" y1="161" x2="212.5" y2="172" gradientUnits="userSpaceOnUse">
<stop stop-opacity="0.9"/>
<stop offset="1" stop-color="#FF0000"/>
</linearGradient>
<linearGradient id="paint22_linear_80_94" x1="242.5" y1="57" x2="242.5" y2="68" gradientUnits="userSpaceOnUse">
<stop stop-opacity="0.9"/>
<stop offset="1" stop-color="#FF0000"/>
</linearGradient>
<linearGradient id="paint23_linear_80_94" x1="242.5" y1="83" x2="242.5" y2="94" gradientUnits="userSpaceOnUse">
<stop stop-opacity="0.9"/>
<stop offset="1" stop-color="#FF0000"/>
</linearGradient>
<linearGradient id="paint24_linear_80_94" x1="242.5" y1="109" x2="242.5" y2="120" gradientUnits="userSpaceOnUse">
<stop stop-opacity="0.9"/>
<stop offset="1" stop-color="#FF0000"/>
</linearGradient>
<linearGradient id="paint25_linear_80_94" x1="242.5" y1="135" x2="242.5" y2="146" gradientUnits="userSpaceOnUse">
<stop stop-opacity="0.9"/>
<stop offset="1" stop-color="#FF0000"/>
</linearGradient>
<linearGradient id="paint26_linear_80_94" x1="242.5" y1="161" x2="242.5" y2="172" gradientUnits="userSpaceOnUse">
<stop stop-opacity="0.9"/>
<stop offset="1" stop-color="#FF0000"/>
</linearGradient>
<linearGradient id="paint27_linear_80_94" x1="242.5" y1="187" x2="242.5" y2="198" gradientUnits="userSpaceOnUse">
<stop stop-opacity="0.9"/>
<stop offset="1" stop-color="#FF0000"/>
</linearGradient>
<linearGradient id="paint28_linear_80_94" x1="138.5" y1="94" x2="138.5" y2="105" gradientUnits="userSpaceOnUse">
<stop stop-opacity="0.9"/>
<stop offset="1" stop-color="#FF0000"/>
</linearGradient>
<linearGradient id="paint29_linear_80_94" x1="138.5" y1="124" x2="138.5" y2="135" gradientUnits="userSpaceOnUse">
<stop stop-opacity="0.9"/>
<stop offset="1" stop-color="#FF0000"/>
</linearGradient>
<linearGradient id="paint30_linear_80_94" x1="138.5" y1="155" x2="138.5" y2="166" gradientUnits="userSpaceOnUse">
<stop stop-opacity="0.9"/>
<stop offset="1" stop-color="#FF0000"/>
</linearGradient>
<linearGradient id="paint31_linear_80_94" x1="182.5" y1="94" x2="182.5" y2="105" gradientUnits="userSpaceOnUse">
<stop stop-opacity="0.9"/>
<stop offset="1" stop-color="#FF0000"/>
</linearGradient>
<linearGradient id="paint32_linear_80_94" x1="182.5" y1="124" x2="182.5" y2="135" gradientUnits="userSpaceOnUse">
<stop stop-opacity="0.9"/>
<stop offset="1" stop-color="#FF0000"/>
</linearGradient>
<linearGradient id="paint33_linear_80_94" x1="182.5" y1="155" x2="182.5" y2="166" gradientUnits="userSpaceOnUse">
<stop stop-opacity="0.9"/>
<stop offset="1" stop-color="#FF0000"/>
</linearGradient>
<linearGradient id="paint34_linear_80_94" x1="160.5" y1="94" x2="160.5" y2="105" gradientUnits="userSpaceOnUse">
<stop stop-opacity="0.9"/>
<stop offset="1" stop-color="#FF0000"/>
</linearGradient>
<linearGradient id="paint35_linear_80_94" x1="160.5" y1="124" x2="160.5" y2="135" gradientUnits="userSpaceOnUse">
<stop stop-opacity="0.9"/>
<stop offset="1" stop-color="#FF0000"/>
</linearGradient>
<linearGradient id="paint36_linear_80_94" x1="160.5" y1="155" x2="160.5" y2="166" gradientUnits="userSpaceOnUse">
<stop stop-opacity="0.9"/>
<stop offset="1" stop-color="#FF0000"/>
</linearGradient>
<linearGradient id="paint37_linear_80_94" x1="271.25" y1="337" x2="271.25" y2="371.5" gradientUnits="userSpaceOnUse">
<stop stop-opacity="0.9"/>
<stop offset="1" stop-color="#FF0000"/>
</linearGradient>
<linearGradient id="paint38_linear_80_94" x1="177" y1="356" x2="177" y2="405" gradientUnits="userSpaceOnUse">
<stop stop-opacity="0.9"/>
<stop offset="1" stop-color="#FF0000"/>
</linearGradient>
</defs>
</svg>
