<svg width="80" height="81" viewBox="0 0 80 81" fill="none" xmlns="http://www.w3.org/2000/svg">
<rect width="80" height="81" fill="white"/>
<circle cx="23.5" cy="12.5" r="5.5" fill="#FFA500"/>
<circle cx="37.5" cy="12.5" r="5.5" fill="#FFA500"/>
<circle cx="37.5" cy="25.5" r="5.5" fill="#FFA500"/>
<circle cx="37.5" cy="39.5" r="5.5" fill="#FFA500"/>
<circle cx="51.5" cy="12.5" r="5.5" fill="#FFA500"/>
<circle cx="51.5" cy="24.5" r="5.5" fill="#FFA500"/>
<circle cx="51.5" cy="39.5" r="5.5" fill="#FFA500"/>
<circle cx="23.5" cy="25.5" r="5.5" fill="#FFA500"/>
<circle cx="23.5" cy="38.5" r="5.5" fill="#FFA500"/>
<path d="M2.69886 59V51.7273H4.45668V54.8026H4.55256L6.95668 51.7273H9.02699L6.44886 54.973L9.07315 59H6.97088L5.1598 56.1413L4.45668 57.0291V59H2.69886ZM11.2935 59H9.4043L11.8581 51.7273H14.1983L16.6522 59H14.763L13.0549 53.5597H12.998L11.2935 59ZM11.0414 56.1378H14.9902V57.473H11.0414V56.1378ZM17.4352 59V51.7273H20.4395C20.984 51.7273 21.4539 51.8255 21.8493 52.022C22.247 52.2161 22.5536 52.4955 22.769 52.8601C22.9844 53.2223 23.0922 53.652 23.0922 54.1491C23.0922 54.6534 22.9821 55.0819 22.7619 55.4347C22.5417 55.785 22.2292 56.0526 21.8244 56.2372C21.4196 56.4195 20.9402 56.5107 20.3862 56.5107H18.4863V55.1257H20.0595C20.3246 55.1257 20.546 55.0914 20.7235 55.0227C20.9035 54.9517 21.0396 54.8452 21.1319 54.7031C21.2243 54.5587 21.2704 54.3741 21.2704 54.1491C21.2704 53.9242 21.2243 53.7384 21.1319 53.5916C21.0396 53.4425 20.9035 53.3312 20.7235 53.2578C20.5436 53.1821 20.3223 53.1442 20.0595 53.1442H19.193V59H17.4352ZM21.5297 55.6761L23.3407 59H21.4231L19.6475 55.6761H21.5297ZM25.6294 59H23.7402L26.1941 51.7273H28.5343L30.9881 59H29.0989L27.3908 53.5597H27.334L25.6294 59ZM25.3773 56.1378H29.3262V57.473H25.3773V56.1378ZM31.7711 51.7273H33.948L35.7946 56.2301H35.8798L37.7264 51.7273H39.9032V59H38.1916V54.5327H38.1312L36.3841 58.9538H35.2903L33.5431 54.5078H33.4828V59H31.7711V51.7273ZM47.6012 54.3622H45.8256C45.802 54.1799 45.7534 54.0154 45.68 53.8686C45.6067 53.7218 45.5096 53.5964 45.3888 53.4922C45.2681 53.388 45.1249 53.3087 44.9592 53.2543C44.7958 53.1974 44.6147 53.169 44.4158 53.169C44.0631 53.169 43.7589 53.2554 43.5032 53.4283C43.2499 53.6011 43.0546 53.8509 42.9173 54.1776C42.7823 54.5043 42.7148 54.8996 42.7148 55.3636C42.7148 55.8466 42.7835 56.2514 42.9208 56.5781C43.0605 56.9025 43.2558 57.1475 43.5067 57.3132C43.7601 57.4766 44.0595 57.5582 44.4052 57.5582C44.5993 57.5582 44.7757 57.5334 44.9343 57.4837C45.0953 57.4339 45.2362 57.3617 45.3569 57.267C45.48 57.17 45.5806 57.0528 45.6587 56.9155C45.7392 56.7758 45.7949 56.6184 45.8256 56.4432L47.6012 56.4538C47.5704 56.7758 47.4769 57.093 47.3207 57.4055C47.1668 57.718 46.9549 58.0033 46.685 58.2614C46.4151 58.517 46.0861 58.7206 45.6978 58.8722C45.3119 59.0237 44.8692 59.0994 44.3697 59.0994C43.7115 59.0994 43.122 58.955 42.6012 58.6662C42.0827 58.375 41.6732 57.9512 41.3725 57.3949C41.0719 56.8385 40.9215 56.1615 40.9215 55.3636C40.9215 54.5634 41.0742 53.8852 41.3796 53.3288C41.685 52.7725 42.0981 52.3499 42.619 52.0611C43.1398 51.7723 43.7234 51.6278 44.3697 51.6278C44.81 51.6278 45.2172 51.6894 45.5913 51.8125C45.9653 51.9332 46.2944 52.1108 46.5785 52.3452C46.8626 52.5772 47.0934 52.8625 47.271 53.201C47.4485 53.5395 47.5586 53.9266 47.6012 54.3622ZM48.6071 59V51.7273H50.3649V54.6463H53.2306V51.7273H54.9849V59H53.2306V56.0774H50.3649V59H48.6071ZM57.6607 59H55.7715L58.2253 51.7273H60.5655L63.0194 59H61.1301L59.4221 53.5597H59.3652L57.6607 59ZM57.4086 56.1378H61.3574V57.473H57.4086V56.1378ZM69.992 51.7273V59H68.5005L65.6064 54.8026H65.5602V59H63.8024V51.7273H65.3152L68.1774 55.9176H68.2377V51.7273H69.992ZM73.7855 59H71.0973V51.7273H73.782C74.523 51.7273 75.161 51.8729 75.696 52.1641C76.2334 52.4529 76.6477 52.8696 76.9389 53.4141C77.2301 53.9562 77.3757 54.6049 77.3757 55.3601C77.3757 56.1177 77.2301 56.7687 76.9389 57.3132C76.6501 57.8577 76.237 58.2756 75.6996 58.5668C75.1622 58.8556 74.5241 59 73.7855 59ZM72.8551 57.5014H73.718C74.1252 57.5014 74.4697 57.4328 74.7514 57.2955C75.0355 57.1558 75.2498 56.9297 75.3942 56.6172C75.541 56.3023 75.6143 55.8833 75.6143 55.3601C75.6143 54.8369 75.541 54.4202 75.3942 54.1101C75.2474 53.7976 75.0308 53.5727 74.7443 53.4354C74.4602 53.2957 74.1098 53.2259 73.6932 53.2259H72.8551V57.5014ZM9.17347 71V63.7273H12.1777C12.7222 63.7273 13.1922 63.8338 13.5875 64.0469C13.9853 64.2576 14.2918 64.5523 14.5073 64.9311C14.7227 65.3075 14.8304 65.7455 14.8304 66.245C14.8304 66.7469 14.7203 67.1861 14.5002 67.5625C14.2824 67.9366 13.9711 68.2266 13.5662 68.4325C13.1614 68.6385 12.6808 68.7415 12.1245 68.7415H10.2708V67.3565H11.7978C12.0629 67.3565 12.2843 67.3104 12.4618 67.218C12.6417 67.1257 12.7779 66.9967 12.8702 66.831C12.9625 66.6629 13.0087 66.4676 13.0087 66.245C13.0087 66.0201 12.9625 65.826 12.8702 65.6626C12.7779 65.4969 12.6417 65.3691 12.4618 65.2791C12.2819 65.1892 12.0605 65.1442 11.7978 65.1442H10.9313V71H9.17347ZM15.6969 71V63.7273H18.7012C19.2457 63.7273 19.7156 63.8255 20.111 64.022C20.5087 64.2161 20.8153 64.4955 21.0307 64.8601C21.2462 65.2223 21.3539 65.652 21.3539 66.1491C21.3539 66.6534 21.2438 67.0819 21.0236 67.4347C20.8034 67.785 20.4909 68.0526 20.0861 68.2372C19.6813 68.4195 19.2019 68.5107 18.6479 68.5107H16.748V67.1257H18.3212C18.5864 67.1257 18.8077 67.0914 18.9853 67.0227C19.1652 66.9517 19.3013 66.8452 19.3936 66.7031C19.486 66.5587 19.5321 66.3741 19.5321 66.1491C19.5321 65.9242 19.486 65.7384 19.3936 65.5916C19.3013 65.4425 19.1652 65.3312 18.9853 65.2578C18.8053 65.1821 18.584 65.1442 18.3212 65.1442H17.4547V71H15.6969ZM19.7914 67.6761L21.6025 71H19.6848L17.9093 67.6761H19.7914ZM29.1824 67.3636C29.1824 68.1638 29.0285 68.8421 28.7207 69.3984C28.4129 69.9548 27.9963 70.3774 27.4707 70.6662C26.9475 70.955 26.3604 71.0994 25.7093 71.0994C25.0559 71.0994 24.4676 70.9538 23.9444 70.6626C23.4212 70.3714 23.0057 69.9489 22.698 69.3949C22.3926 68.8385 22.2399 68.1615 22.2399 67.3636C22.2399 66.5634 22.3926 65.8852 22.698 65.3288C23.0057 64.7725 23.4212 64.3499 23.9444 64.0611C24.4676 63.7723 25.0559 63.6278 25.7093 63.6278C26.3604 63.6278 26.9475 63.7723 27.4707 64.0611C27.9963 64.3499 28.4129 64.7725 28.7207 65.3288C29.0285 65.8852 29.1824 66.5634 29.1824 67.3636ZM27.3855 67.3636C27.3855 66.8902 27.318 66.4901 27.1831 66.1634C27.0505 65.8366 26.8587 65.5893 26.6078 65.4212C26.3592 65.2531 26.0597 65.169 25.7093 65.169C25.3613 65.169 25.0618 65.2531 24.8109 65.4212C24.56 65.5893 24.367 65.8366 24.2321 66.1634C24.0995 66.4901 24.0332 66.8902 24.0332 67.3636C24.0332 67.8371 24.0995 68.2372 24.2321 68.5639C24.367 68.8906 24.56 69.138 24.8109 69.3061C25.0618 69.4742 25.3613 69.5582 25.7093 69.5582C26.0597 69.5582 26.3592 69.4742 26.6078 69.3061C26.8587 69.138 27.0505 68.8906 27.1831 68.5639C27.318 68.2372 27.3855 67.8371 27.3855 67.3636ZM30.2086 71V63.7273H33.2129C33.7574 63.7273 34.2273 63.8338 34.6227 64.0469C35.0204 64.2576 35.327 64.5523 35.5424 64.9311C35.7579 65.3075 35.8656 65.7455 35.8656 66.245C35.8656 66.7469 35.7555 67.1861 35.5353 67.5625C35.3175 67.9366 35.0062 68.2266 34.6014 68.4325C34.1966 68.6385 33.716 68.7415 33.1596 68.7415H31.3059V67.3565H32.8329C33.0981 67.3565 33.3194 67.3104 33.497 67.218C33.6769 67.1257 33.813 66.9967 33.9054 66.831C33.9977 66.6629 34.0439 66.4676 34.0439 66.245C34.0439 66.0201 33.9977 65.826 33.9054 65.6626C33.813 65.4969 33.6769 65.3691 33.497 65.2791C33.3171 65.1892 33.0957 65.1442 32.8329 65.1442H31.9664V71H30.2086ZM36.7321 71V63.7273H41.8031V65.1548H38.4899V66.6463H41.5439V68.0774H38.4899V69.5724H41.8031V71H36.7321ZM42.9039 71V63.7273H45.9082C46.4527 63.7273 46.9226 63.8255 47.318 64.022C47.7157 64.2161 48.0223 64.4955 48.2377 64.8601C48.4532 65.2223 48.5609 65.652 48.5609 66.1491C48.5609 66.6534 48.4508 67.0819 48.2306 67.4347C48.0105 67.785 47.698 68.0526 47.2931 68.2372C46.8883 68.4195 46.4089 68.5107 45.8549 68.5107H43.9551V67.1257H45.5282C45.7934 67.1257 46.0147 67.0914 46.1923 67.0227C46.3722 66.9517 46.5083 66.8452 46.6007 66.7031C46.693 66.5587 46.7392 66.3741 46.7392 66.1491C46.7392 65.9242 46.693 65.7384 46.6007 65.5916C46.5083 65.4425 46.3722 65.3312 46.1923 65.2578C46.0124 65.1821 45.791 65.1442 45.5282 65.1442H44.6618V71H42.9039ZM46.9984 67.6761L48.8095 71H46.8919L45.1163 67.6761H46.9984ZM49.2871 65.1548V63.7273H55.4341V65.1548H53.2289V71H51.4959V65.1548H49.2871ZM58.0504 63.7273V71H56.2926V63.7273H58.0504ZM59.1539 71V63.7273H64.225V65.1548H60.9118V66.6463H63.9657V68.0774H60.9118V69.5724H64.225V71H59.1539ZM69.2569 65.9077C69.2333 65.6473 69.1279 65.4448 68.9409 65.3004C68.7562 65.1536 68.4922 65.0803 68.149 65.0803C67.9217 65.0803 67.7323 65.1098 67.5808 65.169C67.4293 65.2282 67.3156 65.3099 67.2399 65.4141C67.1641 65.5159 67.1251 65.633 67.1227 65.7656C67.118 65.8745 67.1393 65.9704 67.1866 66.0533C67.2363 66.1361 67.3074 66.2095 67.3997 66.2734C67.4944 66.335 67.608 66.3894 67.7406 66.4368C67.8732 66.4841 68.0223 66.5256 68.188 66.5611L68.813 66.7031C69.1729 66.7812 69.4901 66.8854 69.7647 67.0156C70.0417 67.1458 70.2737 67.3009 70.4608 67.4808C70.6502 67.6607 70.7934 67.8679 70.8904 68.1023C70.9875 68.3366 71.0372 68.5994 71.0396 68.8906C71.0372 69.3499 70.9212 69.7441 70.6916 70.0732C70.4619 70.4022 70.1317 70.6544 69.7008 70.8295C69.2723 71.0047 68.755 71.0923 68.149 71.0923C67.5405 71.0923 67.0102 71.0012 66.5581 70.8189C66.1059 70.6366 65.7543 70.3596 65.5034 69.9879C65.2524 69.6162 65.1234 69.1463 65.1163 68.5781H66.7995C66.8137 68.8125 66.8765 69.0078 66.9877 69.1641C67.099 69.3203 67.2517 69.4387 67.4458 69.5192C67.6423 69.5997 67.8696 69.6399 68.1277 69.6399C68.3644 69.6399 68.5656 69.608 68.7314 69.544C68.8994 69.4801 69.0285 69.3913 69.1184 69.2777C69.2084 69.1641 69.2546 69.0339 69.2569 68.8871C69.2546 68.7498 69.2119 68.6326 69.1291 68.5355C69.0462 68.4361 68.9184 68.3509 68.7456 68.2798C68.5751 68.2064 68.3573 68.139 68.0922 68.0774L67.3322 67.8999C66.7025 67.7554 66.2065 67.5223 65.8443 67.2003C65.4821 66.8759 65.3021 66.438 65.3045 65.8864C65.3021 65.4366 65.4229 65.0424 65.6667 64.7038C65.9106 64.3653 66.2479 64.1013 66.6788 63.9119C67.1097 63.7225 67.6009 63.6278 68.1525 63.6278C68.716 63.6278 69.2048 63.7237 69.6191 63.9155C70.0358 64.1049 70.359 64.3712 70.5886 64.7145C70.8182 65.0578 70.9354 65.4555 70.9402 65.9077H69.2569Z" fill="black"/>
</svg>
